<svg version="1.1" xmlns="http://www.w3.org/2000/svg" xmlns:xlink="http://www.w3.org/1999/xlink" 
    width="400" height="405" viewBox="0, 0, 400,405">
    <g>
        <path 
            data-layer="estado" data-layer-name="ac" data-layer-group="norte" stroke="none" fill="#000000"
            d="M4.309 129.905 C 4.309 130.342,3.859 130.700,3.308 130.700 C 1.878 130.700,1.242 132.825,2.526 133.318 C 3.111 133.542,3.591 134.338,3.591 135.086 C 3.591 135.833,3.879 136.445,4.231 136.445 C 4.583 136.445,5.059 137.172,5.290 138.061 C 5.520 138.950,7.008 141.131,8.598 142.908 C 11.691 146.367,12.262 148.851,10.233 150.032 C 9.219 150.623,9.531 150.782,11.849 150.858 C 16.719 151.016,18.214 151.731,18.936 154.247 C 19.603 156.571,28.725 158.051,28.725 155.835 C 28.725 155.440,29.154 155.117,29.677 155.117 C 30.201 155.117,31.388 154.309,32.316 153.321 C 35.360 150.081,35.809 150.844,35.385 158.535 C 34.959 166.265,36.324 168.690,39.996 166.724 C 41.788 165.765,53.294 166.409,53.972 167.506 C 54.674 168.641,57.951 167.077,59.803 164.723 C 60.724 163.552,61.716 163.025,62.575 163.250 C 63.310 163.442,64.096 163.302,64.321 162.938 C 64.546 162.575,66.081 161.592,67.733 160.753 C 73.447 157.854,75.762 155.117,72.501 155.117 C 71.406 155.117,68.358 153.903,60.323 150.266 C 57.263 148.881,49.433 143.507,45.840 140.325 C 40.898 135.948,40.196 135.718,27.200 134.219 C 16.456 132.980,11.012 131.822,5.566 129.619 C 4.819 129.317,4.309 129.433,4.309 129.905"></path>
    </g>
</svg>
