<svg version="1.1" xmlns="http://www.w3.org/2000/svg" xmlns:xlink="http://www.w3.org/1999/xlink" 
    width="400" height="405" viewBox="0, 0, 400,405">
    <g>
        <path 
            data-layer="estado" data-layer-name="al" data-layer-group="nordeste" stroke="none" fill="#000000"
            d="M385.059 146.490 C 383.753 146.799,382.299 147.561,381.827 148.183 C 380.442 150.008,374.590 151.271,372.578 150.178 C 371.664 149.682,369.816 148.667,368.472 147.924 C 366.046 146.582,366.012 146.584,364.026 148.152 C 361.302 150.301,361.539 150.634,368.167 153.986 C 371.348 155.595,375.134 157.823,376.580 158.937 L 379.209 160.961 381.525 158.284 C 382.800 156.811,385.210 154.123,386.882 152.309 C 388.554 150.496,389.927 148.793,389.934 148.525 C 389.941 148.257,390.454 147.530,391.075 146.909 C 392.374 145.610,389.592 145.417,385.059 146.490"></path>
    </g>
</svg>
