<svg version="1.1" xmlns="http://www.w3.org/2000/svg" xmlns:xlink="http://www.w3.org/1999/xlink" 
    width="400" height="403.5906642728905" viewBox="0, 0, 400,403.5906642728905">
    <g>
        <path d="M226.930 13.445 C 226.930 14.222,226.103 15.796,225.093 16.944 C 224.082 18.092,222.744 20.000,222.120 21.185 C 221.495 22.370,220.747 23.501,220.457 23.698 C 220.166 23.896,219.191 25.835,218.289 28.007 C 215.762 34.092,215.922 34.013,205.953 34.170 C 197.896 34.297,197.049 34.185,195.885 32.843 C 194.615 31.380,194.614 31.380,194.624 33.104 C 194.643 36.536,195.415 37.898,197.583 38.332 C 198.751 38.565,200.773 39.569,202.076 40.563 C 203.378 41.557,204.915 42.370,205.490 42.370 C 206.920 42.370,208.259 43.825,208.259 45.380 C 208.259 46.088,208.905 47.070,209.695 47.563 C 210.541 48.092,211.131 49.238,211.131 50.354 C 211.131 52.895,213.076 57.415,214.385 57.918 C 214.965 58.140,215.440 58.918,215.440 59.646 C 215.440 60.374,215.864 61.228,216.383 61.544 C 216.902 61.860,217.637 63.237,218.018 64.604 C 219.195 68.835,225.445 69.340,225.483 65.207 C 225.497 63.573,229.679 57.448,231.148 56.908 C 231.791 56.671,232.478 56.293,232.675 56.067 C 232.873 55.840,233.680 55.311,234.470 54.890 C 235.260 54.469,236.391 53.091,236.984 51.828 C 237.586 50.545,238.808 49.334,239.754 49.085 C 244.055 47.951,244.658 38.779,240.431 38.779 C 239.665 38.779,239.138 38.253,239.138 37.487 C 239.138 35.898,237.794 34.470,236.298 34.470 C 234.796 34.470,231.972 27.061,231.449 21.747 C 230.904 16.213,226.930 8.912,226.930 13.445 " 
            stroke="none" fill="#000000" fill-rule="evenodd"></path>
    </g>
</svg>
