<svg version="1.1" xmlns="http://www.w3.org/2000/svg" xmlns:xlink="http://www.w3.org/1999/xlink" 
    width="400" height="403.5906642728905" viewBox="0, 0, 400,403.5906642728905">
    <g>
        <path d="M348.654 143.632 C 347.864 143.929,346.409 144.963,345.422 145.931 C 344.434 146.899,343.054 147.900,342.354 148.156 C 341.653 148.412,340.869 149.194,340.611 149.894 C 339.517 152.855,334.985 153.373,335.539 150.473 C 335.801 149.104,335.266 148.152,333.183 146.283 L 330.488 143.863 327.901 146.304 C 326.478 147.646,325.314 149.047,325.314 149.417 C 325.314 149.787,324.425 150.092,323.339 150.094 C 322.253 150.097,320.395 150.741,319.210 151.526 C 316.930 153.036,314.561 153.371,313.429 152.342 C 309.840 149.080,304.050 150.929,305.803 154.778 C 307.308 158.080,304.026 163.734,300.606 163.734 C 299.933 163.734,297.910 164.405,296.111 165.225 C 292.062 167.069,289.639 166.327,287.649 162.632 C 286.266 160.064,285.099 159.386,285.099 161.150 C 285.099 161.704,284.152 162.756,282.995 163.489 C 281.838 164.222,280.066 166.037,279.058 167.522 L 277.225 170.223 278.737 171.735 C 280.035 173.034,280.185 173.786,279.800 177.065 C 279.545 179.235,279.647 181.066,280.035 181.306 C 280.411 181.538,280.723 184.957,280.728 188.904 C 280.733 193.606,281.095 196.878,281.776 198.398 C 282.349 199.674,282.969 202.269,283.155 204.165 C 283.639 209.090,284.206 208.979,296.009 201.639 C 300.439 198.885,304.018 199.029,304.356 201.975 C 304.600 204.095,305.032 204.247,310.060 203.981 C 312.318 203.862,314.102 204.371,316.882 205.928 C 318.952 207.088,321.616 208.260,322.801 208.532 C 326.209 209.314,329.451 211.259,330.243 212.998 C 330.867 214.367,331.377 214.542,333.795 214.218 C 335.493 213.990,336.815 214.158,337.113 214.640 C 337.385 215.080,338.265 215.440,339.070 215.440 C 343.740 215.440,345.808 219.627,342.549 222.487 C 341.364 223.527,340.395 224.902,340.395 225.542 C 340.395 226.183,339.749 227.292,338.959 228.007 C 336.951 229.824,337.170 231.360,339.677 233.034 C 340.859 233.824,341.828 235.065,341.829 235.792 C 341.834 239.023,346.150 240.727,347.576 238.061 C 348.105 237.074,348.933 236.266,349.416 236.266 C 350.697 236.266,351.167 234.532,351.167 229.808 C 351.167 227.505,351.792 223.612,352.557 221.157 C 353.775 217.241,353.858 215.901,353.229 210.269 C 352.767 206.133,352.754 201.847,353.191 198.231 C 353.565 195.142,353.725 191.853,353.548 190.922 C 353.211 189.149,356.159 186.715,358.642 186.715 C 359.908 186.715,366.540 178.136,367.604 175.122 C 368.205 173.418,368.078 173.181,366.363 172.806 C 365.086 172.527,363.797 171.296,362.478 169.094 C 359.947 164.873,359.891 163.425,362.282 164.025 C 365.074 164.726,366.126 159.195,363.708 156.524 C 363.004 155.746,362.707 154.654,362.973 153.817 C 363.261 152.909,363.030 152.266,362.319 151.993 C 361.715 151.761,361.221 151.099,361.221 150.522 C 361.221 149.415,355.308 145.063,353.804 145.063 C 353.319 145.063,352.285 144.619,351.506 144.078 C 350.644 143.478,349.528 143.303,348.654 143.632 " 
            stroke="none" fill="#000000" fill-rule="evenodd"></path>
    </g>
</svg>
