<svg version="1.1" xmlns="http://www.w3.org/2000/svg" xmlns:xlink="http://www.w3.org/1999/xlink" 
    width="400" height="403.5906642728905" viewBox="0, 0, 400,403.5906642728905">
    <g>
        <path d="M334.962 85.577 C 329.959 86.493,328.848 89.147,331.148 94.682 C 332.492 97.915,332.591 98.858,331.930 102.153 C 331.227 105.660,331.292 106.051,332.856 107.720 C 334.225 109.180,334.636 110.645,335.058 115.571 C 335.498 120.713,335.843 121.874,337.349 123.269 C 338.736 124.555,339.058 125.450,338.831 127.395 C 338.537 129.916,341.759 131.717,344.041 130.307 C 344.898 129.777,349.013 131.305,349.013 132.153 C 349.013 133.042,353.075 134.221,354.685 133.800 C 356.644 133.287,357.193 131.221,356.142 128.314 C 355.082 125.381,356.908 118.939,359.191 117.556 C 359.973 117.084,361.234 115.485,361.994 114.004 C 362.754 112.522,364.016 110.045,364.799 108.498 C 365.869 106.386,366.808 105.553,368.570 105.155 L 370.916 104.626 368.615 103.671 C 367.350 103.146,364.377 100.772,362.008 98.396 C 359.639 96.020,357.512 94.075,357.282 94.075 C 357.052 94.075,354.422 92.412,351.438 90.378 C 343.416 84.911,341.554 84.369,334.962 85.577 " 
            stroke="none" fill="#000000" fill-rule="evenodd"></path>
    </g>
</svg>
