<svg version="1.1" xmlns="http://www.w3.org/2000/svg" xmlns:xlink="http://www.w3.org/1999/xlink" 
    width="400" height="405" viewBox="0, 0, 400,405">
    <g>
        <path 
            data-layer="estado" data-layer-name="es" data-layer-group="sudeste" stroke="none" fill="#000000"
            d="M336.455 238.066 C 332.956 239.312,331.560 240.982,332.520 242.774 C 332.897 243.480,333.198 244.809,333.187 245.727 C 333.177 246.645,333.379 248.460,333.636 249.759 C 333.958 251.386,333.768 252.504,333.025 253.350 C 332.432 254.025,331.736 255.274,331.477 256.125 C 331.218 256.975,329.922 258.186,328.598 258.814 C 325.701 260.189,325.174 261.346,325.764 265.035 C 326.505 269.670,332.462 271.667,334.375 267.922 C 334.863 266.966,335.780 265.895,336.413 265.540 C 337.834 264.745,341.113 259.650,341.113 258.238 C 341.113 257.668,342.128 256.187,343.368 254.947 C 345.695 252.620,347.109 240.574,345.055 240.574 C 344.656 240.574,343.459 239.767,342.394 238.779 C 340.163 236.711,340.237 236.720,336.455 238.066"></path>
    </g>
</svg>
