<svg version="1.1" xmlns="http://www.w3.org/2000/svg" xmlns:xlink="http://www.w3.org/1999/xlink" 
    width="400" height="403.5906642728905" viewBox="0, 0, 400,403.5906642728905">
    <g>
        <path d="M237.752 186.223 C 237.330 187.335,236.984 188.729,236.984 189.322 C 236.984 190.600,235.610 193.355,234.664 193.974 C 234.296 194.215,233.651 196.961,233.230 200.078 C 232.446 205.889,231.238 208.259,229.061 208.259 C 227.506 208.259,226.653 209.324,225.419 212.807 C 224.725 214.766,223.783 215.835,222.153 216.516 C 219.563 217.598,215.440 221.282,215.440 222.513 C 215.440 222.961,214.309 224.809,212.926 226.620 C 210.406 229.921,209.618 233.535,211.203 234.515 C 211.651 234.792,211.816 235.894,211.583 237.057 C 211.266 238.642,211.504 239.287,212.626 239.888 C 213.505 240.358,213.993 241.238,213.862 242.118 C 213.699 243.207,214.272 243.806,216.158 244.516 C 217.540 245.036,222.032 246.800,226.139 248.436 L 233.607 251.410 235.654 249.449 C 236.781 248.370,237.702 247.046,237.702 246.508 C 237.702 245.194,241.761 243.572,245.946 243.212 C 247.817 243.052,249.607 242.502,249.922 241.991 C 250.695 240.741,257.559 240.239,260.979 241.184 C 263.471 241.872,263.987 241.761,266.339 240.032 C 267.770 238.980,268.975 238.106,269.017 238.090 C 270.076 237.687,269.674 233.471,268.549 233.176 C 266.606 232.668,266.794 230.645,268.941 228.956 C 271.132 227.232,271.180 226.418,269.212 224.323 C 267.073 222.046,267.886 219.488,271.468 217.227 C 274.499 215.313,274.802 214.766,273.536 213.500 C 271.250 211.214,276.706 203.566,279.415 205.258 C 282.360 207.097,283.380 203.639,281.198 199.213 C 280.633 198.066,280.068 194.785,279.942 191.922 C 279.816 189.059,279.606 186.716,279.476 186.716 C 279.346 186.715,277.141 187.554,274.577 188.580 C 272.012 189.606,269.291 190.283,268.530 190.084 C 267.768 189.884,267.145 190.014,267.145 190.372 C 267.145 190.730,265.691 191.023,263.914 191.023 C 262.136 191.023,260.682 190.756,260.682 190.430 C 260.682 190.103,259.713 189.978,258.528 190.152 C 256.956 190.383,256.373 190.179,256.373 189.397 C 256.373 186.170,251.904 185.699,249.433 188.667 L 247.879 190.534 243.876 188.575 C 241.674 187.498,239.569 186.074,239.197 185.409 C 238.614 184.367,238.415 184.479,237.752 186.223 M269.275 212.897 C 271.689 215.805,269.513 218.312,264.575 218.312 L 259.964 218.312 259.964 215.081 L 259.964 211.849 264.185 211.849 C 267.008 211.849,268.694 212.196,269.275 212.897 " 
            stroke="none" fill="#000000" fill-rule="evenodd"></path>
    </g>
</svg>
