<svg version="1.1" xmlns="http://www.w3.org/2000/svg" xmlns:xlink="http://www.w3.org/1999/xlink" 
    width="400" height="403.5906642728905" viewBox="0, 0, 400,403.5906642728905">
    <g>
        <path d="M281.497 72.956 C 280.955 76.124,280.160 78.563,279.600 78.778 C 279.070 78.982,278.636 79.740,278.636 80.462 C 278.636 86.393,264.849 106.284,260.738 106.284 C 258.346 106.284,258.665 108.399,261.127 108.861 C 267.603 110.075,271.486 117.374,268.562 122.837 C 268.178 123.555,267.864 124.956,267.864 125.949 C 267.864 126.943,267.298 128.086,266.607 128.488 C 265.537 129.111,265.520 129.223,266.492 129.242 C 267.119 129.254,268.011 129.991,268.474 130.880 C 270.848 135.441,272.013 136.794,273.325 136.517 C 276.915 135.758,277.553 136.031,277.783 138.420 C 277.950 140.153,277.720 140.754,276.887 140.754 C 276.252 140.754,275.016 142.309,274.034 144.345 C 272.873 146.751,272.596 147.935,273.193 147.935 C 273.683 147.935,274.516 148.743,275.045 149.731 C 275.573 150.718,276.274 151.526,276.602 151.526 C 276.931 151.526,277.199 152.294,277.199 153.233 C 277.199 154.173,277.684 155.343,278.276 155.835 C 278.869 156.327,279.354 157.137,279.354 157.637 C 279.354 158.136,280.312 158.685,281.483 158.857 C 284.170 159.251,285.090 155.212,283.620 149.476 C 282.728 145.998,282.769 145.790,285.339 140.588 C 286.787 137.658,287.971 134.863,287.971 134.376 C 287.971 133.890,289.506 132.816,291.382 131.991 C 293.259 131.165,295.601 129.874,296.589 129.120 C 297.576 128.367,299.640 126.798,301.176 125.635 C 303.858 123.602,306.883 122.882,307.634 124.098 C 307.831 124.416,309.167 124.540,310.603 124.372 C 314.252 123.946,315.198 121.757,313.170 118.431 C 311.269 115.312,311.266 112.945,313.162 111.409 C 314.585 110.258,314.617 109.919,313.844 104.273 C 313.082 98.712,313.123 98.230,314.505 96.473 C 315.316 95.443,315.978 94.209,315.978 93.731 C 315.978 92.565,318.343 90.485,319.669 90.485 C 321.053 90.485,325.439 86.195,325.102 85.170 C 324.960 84.736,323.252 84.282,321.308 84.161 C 319.364 84.040,316.158 83.195,314.183 82.283 C 309.202 79.984,306.228 79.511,304.926 80.813 C 303.573 82.167,298.743 82.235,298.743 80.900 C 298.743 80.369,298.254 78.995,297.657 77.848 C 296.194 75.041,291.586 69.791,291.573 70.916 C 291.567 71.409,291.077 71.813,290.485 71.813 C 289.892 71.813,289.408 71.405,289.408 70.905 C 289.408 70.091,284.566 67.504,283.041 67.504 C 282.705 67.504,282.010 69.958,281.497 72.956 " 
            stroke="none" fill="#000000" fill-rule="evenodd"></path>
    </g>
</svg>
