<svg version="1.1" xmlns="http://www.w3.org/2000/svg" xmlns:xlink="http://www.w3.org/1999/xlink" 
    width="400" height="403.5906642728905" viewBox="0, 0, 400,403.5906642728905">
    <g>
        <path d="M177.020 230.767 C 175.835 231.214,174.684 231.827,174.462 232.130 C 173.194 233.863,168.901 236.266,167.074 236.266 C 165.014 236.266,164.987 236.309,166.211 237.662 C 167.418 238.995,167.415 239.213,166.152 242.509 C 165.425 244.407,164.909 246.314,165.006 246.746 C 165.103 247.178,164.225 249.326,163.055 251.518 C 161.030 255.314,160.995 255.523,162.331 255.872 C 164.112 256.338,164.157 258.297,162.400 258.855 C 161.101 259.267,161.102 259.389,162.428 263.391 C 163.512 266.662,163.696 268.608,163.327 272.890 L 162.863 278.276 166.731 279.174 C 171.619 280.309,174.855 280.315,176.653 279.192 C 177.764 278.498,178.247 278.498,178.941 279.192 C 179.425 279.676,180.686 280.072,181.743 280.072 C 184.087 280.072,185.136 281.235,185.694 284.449 C 185.927 285.794,186.390 287.702,186.723 288.689 C 187.056 289.677,187.534 292.020,187.784 293.896 C 188.288 297.678,189.256 298.099,193.801 296.514 C 195.652 295.869,196.410 295.942,197.878 296.903 C 200.017 298.305,200.751 297.988,201.404 295.383 C 201.672 294.318,202.421 293.058,203.069 292.584 C 203.717 292.110,204.612 290.636,205.057 289.308 C 205.544 287.857,206.702 286.465,207.960 285.817 C 209.112 285.224,210.309 284.342,210.620 283.856 C 210.932 283.370,212.564 282.165,214.247 281.179 C 217.341 279.365,220.467 276.306,220.467 275.091 C 220.467 274.727,220.887 274.002,221.402 273.480 C 222.370 272.497,225.494 266.370,225.494 265.453 C 225.494 264.253,228.729 260.682,229.817 260.682 C 231.068 260.682,232.532 255.884,232.119 253.135 C 231.916 251.784,227.650 249.778,215.130 245.145 C 213.597 244.578,212.921 243.849,212.908 242.751 C 212.899 241.882,212.333 240.860,211.652 240.478 C 210.970 240.097,210.413 239.291,210.413 238.686 C 210.413 237.836,209.919 237.696,208.229 238.067 C 204.055 238.984,201.333 236.010,203.950 233.393 C 206.342 231.001,205.559 230.316,202.820 232.405 C 200.431 234.227,200.079 234.299,197.722 233.446 C 195.879 232.780,194.974 232.746,194.399 233.321 C 193.081 234.639,190.170 234.177,185.656 231.934 C 181.022 229.632,180.293 229.534,177.020 230.767 " 
            stroke="none" fill="#000000" fill-rule="evenodd"></path>
    </g>
</svg>
