<svg id="svg" version="1.1" xmlns="http://www.w3.org/2000/svg" xmlns:xlink="http://www.w3.org/1999/xlink" width="400" height="403.5906642728905" viewBox="0, 0, 400,403.5906642728905"><g id="svgg"><path id="path0" d="M160.513 131.777 C 160.252 132.567,159.784 133.703,159.473 134.301 C 159.161 134.899,159.054 136.396,159.235 137.627 C 159.416 138.858,159.209 140.085,158.776 140.352 C 158.343 140.620,157.989 141.789,157.989 142.951 L 157.989 145.063 143.447 145.074 C 135.449 145.080,128.477 145.356,127.954 145.688 C 127.034 146.271,126.791 150.653,127.028 162.416 L 127.110 166.484 132.675 166.958 C 141.822 167.736,144.581 169.314,141.924 172.250 C 140.686 173.618,140.708 173.788,142.550 177.087 C 144.454 180.499,144.284 183.842,142.206 183.842 C 141.802 183.842,141.472 184.283,141.472 184.822 C 141.472 185.362,140.826 186.624,140.036 187.629 C 139.246 188.633,138.600 190.131,138.600 190.957 C 138.600 191.783,138.357 192.465,138.061 192.471 C 136.236 192.508,135.525 193.796,136.688 194.959 C 137.344 195.616,137.882 197.078,137.882 198.209 C 137.882 199.340,138.159 201.014,138.499 201.928 C 140.178 206.448,140.181 208.977,138.507 208.977 L 136.913 208.977 138.429 210.592 C 139.457 211.689,140.017 213.363,140.170 215.799 C 140.357 218.777,140.640 219.414,141.831 219.533 C 142.621 219.612,146.773 219.887,151.057 220.145 L 158.847 220.614 158.347 222.516 C 157.037 227.499,159.094 231.957,162.704 231.957 C 163.804 231.957,164.436 232.513,164.747 233.752 C 165.461 236.597,170.971 235.167,173.744 231.418 C 174.306 230.658,178.983 229.084,180.680 229.084 C 181.452 229.084,184.014 230.044,186.374 231.216 C 191.227 233.628,191.914 233.746,193.890 232.512 C 194.998 231.820,195.796 231.817,197.601 232.498 C 199.669 233.279,200.135 233.187,202.236 231.584 C 206.016 228.701,208.017 230.762,204.678 234.101 C 202.781 235.998,205.140 237.767,208.797 237.190 C 211.128 236.821,211.769 236.027,210.413 235.189 C 208.718 234.141,209.667 229.230,212.208 225.902 C 213.591 224.091,214.722 222.243,214.722 221.795 C 214.722 220.564,218.845 216.880,221.435 215.798 C 223.065 215.117,224.007 214.048,224.701 212.088 C 225.935 208.606,226.788 207.540,228.343 207.540 C 230.510 207.540,231.727 205.180,232.495 199.486 C 232.934 196.226,233.716 193.470,234.394 192.793 C 235.027 192.159,235.734 190.775,235.966 189.716 C 236.197 188.658,236.519 187.364,236.682 186.842 C 236.845 186.320,236.655 185.287,236.258 184.547 C 234.588 181.425,235.225 166.599,237.258 161.290 C 239.594 155.190,241.337 156.004,223.271 154.755 C 177.336 151.580,174.448 151.235,171.682 148.592 C 170.478 147.441,169.223 146.499,168.893 146.499 C 167.695 146.499,165.171 143.134,165.171 141.537 C 165.171 140.636,164.712 139.041,164.151 137.992 C 163.590 136.944,162.649 134.794,162.059 133.214 C 161.158 130.797,160.913 130.569,160.513 131.777 " stroke="none" fill="#000000" fill-rule="evenodd"></path></g></svg>