<svg version="1.1" xmlns="http://www.w3.org/2000/svg" xmlns:xlink="http://www.w3.org/1999/xlink" 
    width="400" height="405" viewBox="0, 0, 400,405">
    <g>
        <path 
            data-layer="estado" data-layer-name="mg" data-layer-group="sudeste" stroke="none" fill="#000000"
            d="M298.153 201.490 C 291.028 206.523,282.944 209.929,282.944 207.899 C 282.944 207.236,282.271 206.822,281.191 206.822 C 280.227 206.822,279.231 206.487,278.978 206.077 C 278.397 205.138,274.673 208.756,274.024 210.891 C 273.763 211.747,273.886 212.654,274.298 212.908 C 275.879 213.886,275.007 216.229,272.513 217.700 C 268.850 219.862,268.084 221.639,269.956 223.633 C 271.998 225.806,271.837 227.961,269.495 229.803 L 267.536 231.344 269.123 232.548 C 274.012 236.256,267.145 243.379,260.088 241.921 C 255.574 240.988,250.975 241.508,250.397 243.015 C 250.168 243.612,248.785 244.006,246.778 244.046 C 242.937 244.123,238.420 245.842,238.420 247.226 C 238.420 248.337,234.766 252.065,233.677 252.065 C 233.284 252.065,232.962 253.196,232.962 254.578 C 232.962 257.495,232.820 257.431,235.982 255.930 C 237.773 255.081,238.682 254.978,239.369 255.549 C 239.885 255.977,242.368 256.448,244.885 256.595 C 248.485 256.805,249.667 257.170,250.419 258.303 C 251.335 259.682,251.599 259.702,256.568 258.769 C 266.380 256.925,267.175 256.865,268.981 257.831 C 270.208 258.488,270.736 259.382,270.736 260.804 C 270.736 261.922,271.095 262.837,271.534 262.837 C 272.056 262.837,272.170 263.700,271.864 265.331 C 271.220 268.763,273.006 271.454,275.927 271.454 C 277.977 271.454,278.057 271.567,277.597 273.788 C 275.951 281.742,280.706 289.615,284.489 285.197 C 285.187 284.382,287.547 283.499,290.536 282.935 C 293.231 282.426,296.423 281.439,297.629 280.741 C 298.834 280.043,302.406 279.097,305.566 278.641 C 318.147 276.821,317.162 277.603,324.112 263.914 C 324.312 263.519,324.667 262.321,324.901 261.252 C 325.184 259.957,326.155 258.914,327.807 258.130 C 329.172 257.483,330.500 256.257,330.759 255.406 C 331.017 254.556,331.736 253.283,332.356 252.577 C 333.313 251.488,333.348 250.920,332.585 248.811 C 332.092 247.445,331.884 246.010,332.125 245.620 C 332.365 245.231,332.206 244.248,331.771 243.435 C 330.112 240.336,332.705 237.683,338.445 236.606 C 341.672 236.001,341.742 235.611,338.959 233.752 C 336.398 232.042,336.087 229.238,338.241 227.289 C 339.031 226.574,339.677 225.465,339.677 224.824 C 339.677 224.183,340.720 222.743,341.996 221.624 L 344.315 219.589 342.176 217.877 C 340.999 216.936,339.328 216.164,338.462 216.162 C 337.597 216.160,336.675 215.812,336.414 215.389 C 336.123 214.918,334.860 214.803,333.152 215.091 C 330.682 215.509,330.277 215.367,329.581 213.840 C 328.739 211.991,325.567 210.050,322.083 209.250 C 320.898 208.978,318.217 207.797,316.126 206.625 C 313.097 204.928,311.783 204.581,309.663 204.920 C 305.725 205.550,303.889 204.850,303.631 202.620 C 303.361 200.281,300.654 199.723,298.153 201.490"></path>
    </g>
</svg>
