<svg id="svg" version="1.1" xmlns="http://www.w3.org/2000/svg" xmlns:xlink="http://www.w3.org/1999/xlink" width="400" height="403.5906642728905" viewBox="0, 0, 400,403.5906642728905"><g id="svgg"><path id="path0" d="M211.755 284.128 C 211.208 284.859,209.820 285.943,208.672 286.535 C 207.421 287.181,206.261 288.579,205.775 290.026 C 205.330 291.354,204.435 292.828,203.787 293.302 C 203.139 293.776,202.384 295.059,202.110 296.152 C 201.835 297.245,201.087 298.356,200.446 298.621 C 199.648 298.951,199.241 300.118,199.152 302.334 C 198.974 306.758,198.177 310.884,197.407 311.360 C 195.581 312.488,196.850 313.874,199.290 313.416 C 202.035 312.901,203.939 313.907,203.966 315.887 C 203.993 317.895,206.545 320.503,208.706 320.733 C 209.842 320.854,212.226 321.088,214.004 321.252 C 215.781 321.417,218.689 322.040,220.467 322.637 C 227.115 324.868,229.676 324.864,229.934 322.622 C 230.122 320.987,230.554 320.608,232.442 320.425 C 233.696 320.304,235.109 319.738,235.582 319.169 C 236.566 317.983,243.501 317.727,245.509 318.802 C 247.344 319.784,256.338 317.306,257.301 315.553 C 257.715 314.800,258.837 313.500,259.795 312.666 C 261.582 311.108,260.942 308.079,258.825 308.079 C 258.389 308.079,257.447 307.433,256.732 306.643 C 255.802 305.615,254.521 305.206,252.223 305.206 C 249.042 305.206,249.017 305.187,249.442 303.062 C 249.771 301.415,249.500 300.571,248.275 299.430 C 247.121 298.355,246.654 297.048,246.589 294.715 C 246.471 290.437,244.456 288.278,239.979 287.636 C 238.134 287.371,234.686 286.638,232.316 286.007 C 229.946 285.377,224.833 284.814,220.953 284.758 C 216.052 284.687,213.724 284.372,213.325 283.727 C 212.881 283.008,212.527 283.098,211.755 284.128 " stroke="none" fill="#000000" fill-rule="evenodd"></path></g></svg>