<svg id="svg" version="1.1" xmlns="http://www.w3.org/2000/svg" xmlns:xlink="http://www.w3.org/1999/xlink" width="400" height="403.5906642728905" viewBox="0, 0, 400,403.5906642728905"><g id="svgg"><path id="path0" d="M366.637 119.912 C 362.362 122.161,360.188 122.599,359.425 121.364 C 357.968 119.006,355.577 125.333,356.954 127.906 C 357.402 128.744,357.638 130.322,357.478 131.414 C 356.824 135.865,365.953 135.243,368.797 130.643 C 369.477 129.542,372.726 129.903,373.197 131.132 C 373.440 131.764,373.317 132.491,372.923 132.748 C 371.662 133.569,370.548 136.305,370.997 137.477 C 371.936 139.923,374.809 139.660,377.343 136.894 C 379.306 134.750,380.224 134.291,382.543 134.291 C 384.418 134.291,386.171 133.692,387.792 132.496 C 390.384 130.583,393.898 130.113,394.497 131.598 C 395.239 133.436,394.942 127.236,394.185 125.062 C 393.357 122.689,393.496 122.733,385.996 122.452 C 384.811 122.408,383.034 122.013,382.047 121.575 C 379.855 120.602,378.456 121.973,378.456 125.092 C 378.456 127.389,376.866 127.762,374.549 126.009 C 373.782 125.430,372.085 124.955,370.778 124.955 C 367.873 124.955,367.502 122.775,369.961 120.157 C 372.354 117.609,371.180 117.523,366.637 119.912 " stroke="none" fill="#000000" fill-rule="evenodd"></path></g></svg>