<svg id="svg" version="1.1" xmlns="http://www.w3.org/2000/svg" xmlns:xlink="http://www.w3.org/1999/xlink" width="400" height="403.5906642728905" viewBox="0, 0, 400,403.5906642728905"><g id="svgg"><path id="path0" d="M189.347 31.689 C 188.622 32.111,186.771 32.335,185.232 32.189 C 182.318 31.911,181.329 32.748,182.461 34.536 C 184.529 37.801,178.574 39.062,170.795 37.005 C 169.279 36.604,168.712 36.811,168.077 37.998 C 167.606 38.877,166.564 39.497,165.556 39.497 C 164.610 39.497,163.321 40.013,162.690 40.644 C 162.059 41.275,161.067 41.608,160.484 41.385 C 159.062 40.839,157.271 41.588,157.271 42.728 C 157.271 43.235,156.463 43.853,155.476 44.101 C 153.555 44.583,152.586 58.844,154.399 59.964 C 154.794 60.208,155.117 61.024,155.117 61.777 C 155.117 62.529,155.763 63.491,156.553 63.914 C 157.343 64.337,157.989 65.101,157.989 65.613 C 157.989 66.125,158.878 67.002,159.964 67.563 C 161.050 68.123,162.300 68.905,162.741 69.300 C 166.173 72.372,167.538 73.250,168.886 73.250 C 169.739 73.250,170.948 73.719,171.574 74.293 C 175.341 77.751,175.657 77.911,178.276 77.695 C 180.979 77.471,182.234 79.074,180.022 79.923 C 178.816 80.386,170.731 96.762,163.791 112.801 C 162.154 116.583,160.057 120.784,159.130 122.136 L 157.445 124.596 159.164 126.750 C 160.110 127.935,161.160 129.250,161.497 129.672 C 161.834 130.094,162.546 131.710,163.078 133.263 C 163.610 134.816,164.460 136.724,164.967 137.503 C 165.474 138.282,165.889 139.760,165.889 140.789 C 165.889 142.461,168.431 145.781,169.712 145.781 C 169.986 145.781,171.196 146.723,172.400 147.874 C 175.166 150.517,178.059 150.862,223.963 154.035 C 241.161 155.224,240.261 155.356,241.301 151.496 C 241.722 149.932,242.385 148.654,242.774 148.654 C 243.164 148.654,243.790 147.846,244.165 146.858 C 244.541 145.871,245.147 145.063,245.513 145.063 C 246.319 145.063,249.300 140.367,250.071 137.882 C 250.448 136.666,250.234 135.345,249.407 133.788 C 248.254 131.618,248.256 131.413,249.442 130.103 C 250.274 129.184,250.549 128.119,250.256 126.953 C 249.872 125.424,250.130 125.101,252.196 124.516 C 253.533 124.137,254.889 123.140,255.287 122.244 C 255.677 121.365,256.333 120.646,256.745 120.646 C 257.619 120.646,259.502 116.443,259.284 114.978 C 259.203 114.427,259.516 113.742,259.982 113.454 C 260.524 113.119,260.028 112.578,258.600 111.946 C 255.813 110.712,256.991 105.566,260.062 105.566 C 264.135 105.566,277.917 85.635,277.917 79.744 C 277.917 79.022,278.340 78.268,278.857 78.070 C 279.373 77.872,280.181 75.618,280.652 73.063 C 281.770 66.995,281.752 66.786,280.114 66.786 C 279.348 66.786,278.527 66.473,278.290 66.090 C 277.409 64.664,267.738 62.333,264.634 62.799 C 260.828 63.370,257.810 62.283,257.810 60.341 C 257.810 59.149,257.342 58.887,255.214 58.887 C 252.177 58.887,247.235 56.331,246.638 54.450 C 246.365 53.591,245.526 53.142,244.195 53.142 C 242.630 53.142,242.063 52.731,241.716 51.346 C 241.032 48.621,239.558 49.123,237.702 52.712 C 237.110 53.858,235.978 55.150,235.189 55.584 C 234.399 56.018,233.591 56.559,233.393 56.785 C 233.196 57.011,232.509 57.390,231.867 57.626 C 230.397 58.166,226.216 64.291,226.201 65.925 C 226.162 70.261,218.537 69.766,217.307 65.348 C 216.923 63.967,216.184 62.578,215.665 62.262 C 215.146 61.946,214.722 61.092,214.722 60.364 C 214.722 59.636,214.247 58.858,213.667 58.636 C 212.358 58.133,210.413 53.613,210.413 51.072 C 210.413 49.956,209.823 48.810,208.977 48.282 C 208.187 47.788,207.540 46.806,207.540 46.098 C 207.540 44.543,206.202 43.088,204.772 43.088 C 204.197 43.088,202.660 42.275,201.358 41.281 C 200.055 40.288,198.033 39.283,196.865 39.050 C 194.780 38.633,193.928 37.249,193.906 34.240 C 193.886 31.601,191.650 30.350,189.347 31.689 " stroke="none" fill="#000000" fill-rule="evenodd"></path></g></svg>