<svg version="1.1" xmlns="http://www.w3.org/2000/svg" xmlns:xlink="http://www.w3.org/1999/xlink" 
    width="400" height="405" viewBox="0, 0, 400,405">
    <g>
        <path 
            data-layer="estado" data-layer-name="pe" data-layer-group="nordeste" stroke="none" fill="#000000"
            d="M337.205 131.582 C 336.104 132.198,336.096 132.404,337.120 133.966 C 338.834 136.582,338.522 137.493,334.829 140.639 L 331.418 143.546 334.165 145.837 C 336.357 147.665,336.825 148.472,336.485 149.827 C 335.815 152.497,338.883 151.910,339.892 149.176 C 340.151 148.476,340.935 147.692,341.635 147.435 C 342.336 147.177,343.831 146.080,344.960 144.996 C 347.614 142.447,350.069 141.843,352.073 143.247 C 352.936 143.851,354.038 144.345,354.522 144.345 C 355.007 144.345,356.895 145.351,358.717 146.581 L 362.031 148.817 363.719 147.231 C 365.678 145.392,367.290 145.648,371.450 148.461 C 374.367 150.434,379.868 149.853,381.224 147.430 C 381.854 146.303,386.159 145.107,389.679 145.080 C 392.030 145.062,392.253 144.746,394.193 138.672 C 396.246 132.246,393.455 129.565,388.510 133.214 C 386.889 134.410,385.136 135.009,383.261 135.009 C 380.960 135.009,380.024 135.469,378.143 137.522 C 373.788 142.276,367.799 139.507,370.664 134.064 C 371.118 133.201,371.836 132.271,372.260 131.996 C 372.744 131.681,372.561 131.316,371.766 131.011 C 371.047 130.735,369.974 130.974,369.273 131.567 C 365.153 135.054,359.128 136.851,357.949 134.944 C 357.666 134.486,356.514 134.340,355.165 134.594 C 352.786 135.040,348.294 133.889,348.294 132.833 C 348.294 131.388,339.354 130.379,337.205 131.582"></path>
    </g>
</svg>
