<svg version="1.1" xmlns="http://www.w3.org/2000/svg" xmlns:xlink="http://www.w3.org/1999/xlink" 
    width="400" height="403.5906642728905" viewBox="0, 0, 400,403.5906642728905">
    <g>
        <path d="M326.032 86.215 C 326.032 87.220,321.425 91.203,320.262 91.203 C 318.979 91.203,316.697 93.361,316.697 94.574 C 316.697 94.983,316.077 96.106,315.320 97.068 C 314.058 98.673,314.007 99.319,314.710 104.827 C 315.444 110.580,315.411 110.888,313.932 112.085 C 311.999 113.651,312.002 114.379,313.960 117.863 C 316.829 122.966,312.217 127.480,306.855 124.816 C 305.161 123.974,305.078 124.014,299.102 128.507 C 297.522 129.695,294.533 131.465,292.460 132.439 C 290.386 133.414,288.688 134.634,288.687 135.149 C 288.686 135.664,287.540 138.348,286.141 141.113 C 283.737 145.864,283.644 146.308,284.446 149.209 C 284.915 150.904,285.105 153.878,284.872 155.852 C 284.502 158.968,284.613 159.425,285.738 159.425 C 286.469 159.425,287.600 160.489,288.351 161.885 C 290.242 165.396,292.090 166.041,295.559 164.401 C 297.113 163.666,298.998 163.054,299.748 163.041 C 301.796 163.004,306.174 158.211,305.538 156.701 C 302.864 150.353,306.496 147.924,313.623 151.294 C 315.777 152.313,316.103 152.284,318.376 150.880 C 319.718 150.050,321.645 149.372,322.658 149.372 C 323.769 149.372,324.669 148.874,324.928 148.115 C 325.164 147.424,327.798 144.919,330.782 142.549 C 337.890 136.902,337.794 137.046,336.282 134.342 C 335.071 132.177,335.070 132.019,336.263 131.126 C 338.497 129.453,338.686 125.892,336.642 123.997 C 335.123 122.590,334.781 121.443,334.339 116.289 C 333.904 111.212,333.529 109.926,332.015 108.330 C 330.292 106.514,330.247 106.248,331.019 102.526 C 331.739 99.058,331.661 98.232,330.317 95.096 C 328.882 91.749,328.803 90.191,329.933 87.521 C 330.315 86.617,329.928 86.278,328.230 86.029 C 327.021 85.852,326.032 85.935,326.032 86.215 " 
            stroke="none" fill="#000000" fill-rule="evenodd"></path>
    </g>
</svg>
