<svg version="1.1" xmlns="http://www.w3.org/2000/svg" xmlns:xlink="http://www.w3.org/1999/xlink" 
    width="400" height="405" viewBox="0, 0, 400,405">
    <g>
        <path 
            data-layer="estado" data-layer-name="rj" data-layer-group="sudeste" stroke="none" fill="#000000"
            d="M324.236 265.658 C 323.842 266.223,322.388 268.966,321.005 271.754 C 318.164 277.484,317.791 277.678,306.284 279.376 C 297.892 280.614,293.989 282.963,298.743 283.914 C 301.730 284.511,301.439 286.148,298.205 286.947 C 295.529 287.608,294.344 289.976,296.353 290.645 C 296.888 290.824,297.053 290.388,296.808 289.449 C 296.508 288.301,296.761 287.971,297.941 287.971 C 298.804 287.971,299.461 288.431,299.461 289.033 C 299.461 289.905,299.815 289.953,301.436 289.303 C 302.522 288.867,304.057 288.268,304.847 287.972 C 305.637 287.676,310.080 287.474,314.719 287.523 C 323.572 287.617,323.527 287.633,323.222 284.346 C 323.073 282.747,325.859 280.507,329.803 279.055 C 331.679 278.364,333.214 277.712,333.214 277.606 C 333.214 277.500,332.857 276.389,332.420 275.137 C 331.836 273.461,331.841 272.603,332.438 271.883 C 333.095 271.090,332.643 270.814,330.059 270.426 C 326.536 269.898,325.574 269.106,325.203 266.427 C 325.004 265.000,324.806 264.842,324.236 265.658"></path>
    </g>
</svg>
