<svg version="1.1" xmlns="http://www.w3.org/2000/svg" xmlns:xlink="http://www.w3.org/1999/xlink" 
    width="400" height="403.5906642728905" viewBox="0, 0, 400,403.5906642728905">
    <g>
        <path d="M205.012 330.426 C 203.440 330.670,200.797 331.559,199.137 332.401 C 197.477 333.243,195.862 333.937,195.546 333.943 C 195.231 333.950,193.897 334.903,192.582 336.063 C 191.266 337.222,189.243 338.590,188.085 339.103 C 186.927 339.616,185.800 340.601,185.581 341.292 C 185.361 341.984,184.719 342.549,184.153 342.549 C 183.587 342.549,183.122 342.792,183.119 343.088 C 183.117 343.384,181.420 345.443,179.349 347.662 C 177.278 349.882,175.050 352.305,174.397 353.048 C 173.745 353.791,171.669 355.853,169.783 357.630 C 166.453 360.770,166.782 363.234,170.128 360.207 C 172.889 357.708,182.308 363.624,182.383 367.904 C 182.405 369.155,182.485 369.155,184.617 367.904 C 186.789 366.630,186.851 366.635,188.108 368.179 C 189.458 369.838,194.111 372.711,195.446 372.711 C 195.880 372.711,197.487 373.842,199.017 375.224 C 200.548 376.607,202.262 377.738,202.827 377.738 C 203.392 377.738,204.765 379.079,205.877 380.718 C 208.569 384.686,210.377 385.299,212.790 383.062 C 215.145 380.878,216.017 380.877,216.564 383.057 C 217.267 385.857,215.689 388.021,213.294 387.542 C 211.706 387.225,211.204 387.436,210.914 388.543 C 210.713 389.315,210.068 389.946,209.482 389.946 C 208.492 389.946,207.341 394.535,208.132 395.326 C 209.630 396.823,216.797 388.913,217.890 384.555 C 218.183 383.391,219.696 381.226,221.254 379.744 L 224.086 377.050 221.917 377.484 C 219.568 377.954,218.646 375.962,220.826 375.125 C 221.418 374.898,221.903 374.118,221.903 373.391 C 221.903 372.665,222.762 371.650,223.812 371.134 C 224.861 370.619,226.073 369.551,226.505 368.761 C 226.936 367.971,227.469 367.163,227.689 366.966 C 227.909 366.768,228.510 365.564,229.025 364.290 C 229.747 362.507,230.524 361.869,232.404 361.516 C 233.747 361.264,235.022 360.771,235.239 360.421 C 235.934 359.297,237.702 359.742,237.699 361.041 C 237.696 362.738,235.628 365.940,232.017 369.838 C 228.450 373.690,225.702 377.330,226.655 376.940 C 229.333 375.845,238.543 364.215,240.274 359.743 C 240.954 357.989,242.239 355.562,243.132 354.351 C 244.736 352.176,244.738 352.140,243.334 351.263 C 241.853 350.338,241.993 346.901,243.593 344.913 C 244.093 344.292,243.814 343.947,242.613 343.701 C 241.689 343.512,240.048 343.170,238.966 342.942 C 237.883 342.713,235.523 341.051,233.721 339.249 C 227.563 333.090,214.232 328.994,205.012 330.426 " 
            stroke="none" fill="#000000" fill-rule="evenodd"></path>
    </g>
</svg>
