<svg version="1.1" xmlns="http://www.w3.org/2000/svg" xmlns:xlink="http://www.w3.org/1999/xlink" 
    width="400" height="405" viewBox="0, 0, 400,405">
    <g>
        <path 
            data-layer="estado" data-layer-name="rn" data-layer-group="nordeste" stroke="none" fill="#000000"
            d="M368.213 106.080 C 367.517 106.252,366.347 107.580,365.614 109.031 C 364.880 110.482,363.706 112.801,363.003 114.183 C 362.300 115.566,360.935 117.353,359.969 118.155 L 358.213 119.613 359.926 120.530 C 361.434 121.337,362.134 121.185,365.811 119.251 C 371.668 116.170,374.672 117.281,370.557 121.005 C 368.381 122.974,368.748 124.237,371.496 124.237 C 372.803 124.237,374.500 124.711,375.267 125.291 C 377.249 126.791,377.738 126.644,377.738 124.549 C 377.738 120.542,379.157 119.405,382.539 120.706 C 386.416 122.197,393.777 122.282,393.146 120.827 C 392.845 120.135,392.136 117.779,391.569 115.591 C 389.833 108.886,388.890 108.131,381.914 107.871 C 378.630 107.748,375.296 107.366,374.506 107.021 C 372.463 106.131,369.690 105.716,368.213 106.080"></path>
    </g>
</svg>
