<svg version="1.1" xmlns="http://www.w3.org/2000/svg" xmlns:xlink="http://www.w3.org/1999/xlink" 
    width="400" height="403.5906642728905" viewBox="0, 0, 400,403.5906642728905">
    <g>
        <path d="M105.377 139.073 C 103.648 140.304,102.693 141.554,102.693 142.587 C 102.693 143.469,102.208 144.377,101.616 144.604 C 101.023 144.832,100.539 145.513,100.539 146.117 C 100.539 146.855,99.845 147.217,98.431 147.217 C 95.298 147.217,92.885 148.353,92.445 150.035 C 92.022 151.655,89.056 152.171,89.037 150.628 C 89.030 150.032,88.797 150.092,88.343 150.808 C 87.845 151.593,86.451 151.862,83.194 151.802 C 79.748 151.737,78.400 152.024,77.290 153.058 C 76.499 153.795,75.524 154.399,75.125 154.399 C 74.667 154.399,74.651 154.645,75.081 155.065 C 75.501 155.476,77.144 155.467,79.354 155.043 C 81.329 154.664,83.671 154.532,84.560 154.749 C 85.449 154.966,86.176 154.815,86.176 154.412 C 86.176 154.010,86.619 153.680,87.161 153.680 C 88.438 153.680,89.319 159.015,88.343 160.839 C 87.844 161.770,87.852 162.836,88.368 164.194 C 88.785 165.288,88.918 167.410,88.665 168.909 C 88.366 170.676,88.479 171.634,88.985 171.634 C 89.415 171.634,89.767 172.118,89.767 172.711 C 89.767 173.303,90.067 173.788,90.435 173.788 C 90.802 173.788,91.206 174.479,91.332 175.323 C 91.464 176.201,92.623 177.425,94.039 178.183 C 95.402 178.911,96.792 179.997,97.127 180.597 C 97.563 181.375,98.921 181.688,101.873 181.688 C 104.398 181.688,106.552 182.098,107.403 182.742 C 108.170 183.322,109.306 183.807,109.929 183.819 C 110.551 183.832,111.784 184.612,112.668 185.553 C 113.576 186.520,115.505 187.460,117.104 187.716 C 118.942 188.010,120.682 188.952,122.073 190.408 C 123.940 192.362,124.557 192.595,126.918 192.237 C 128.432 192.007,130.808 192.245,132.316 192.777 C 133.797 193.299,135.009 193.463,135.009 193.142 C 135.009 192.820,135.655 192.351,136.445 192.101 C 137.335 191.818,137.882 191.014,137.882 189.986 C 137.882 189.073,138.354 187.935,138.931 187.456 C 139.508 186.977,140.186 185.936,140.438 185.143 C 140.690 184.349,141.506 183.090,142.252 182.344 C 143.582 181.014,143.573 180.925,141.822 177.788 C 139.740 174.058,139.649 173.251,141.131 171.614 C 142.907 169.652,140.874 168.671,133.391 167.879 C 125.320 167.026,126.327 168.616,126.149 156.447 C 125.997 146.071,125.516 143.496,124.012 145.000 C 122.920 146.092,120.828 145.974,120.143 144.781 C 115.867 137.335,110.653 135.320,105.377 139.073 " 
            stroke="none" fill="#000000" fill-rule="evenodd"></path>
    </g>
</svg>
