<svg id="svg" version="1.1" xmlns="http://www.w3.org/2000/svg" xmlns:xlink="http://www.w3.org/1999/xlink" width="400" height="403.5906642728905" viewBox="0, 0, 400,403.5906642728905"><g id="svgg"><path id="path0" d="M137.702 4.156 C 136.225 4.341,135.727 4.800,135.727 5.975 C 135.727 8.055,131.788 11.754,130.056 11.301 C 129.276 11.097,128.332 11.508,127.762 12.300 C 127.229 13.039,126.237 13.645,125.557 13.645 C 124.878 13.645,124.108 13.990,123.847 14.412 C 123.586 14.835,122.032 15.131,120.394 15.072 C 116.021 14.912,114.183 15.669,114.183 17.630 C 114.183 20.325,111.575 20.638,109.473 18.195 C 108.510 17.075,107.721 16.556,107.721 17.042 C 107.720 18.250,101.102 17.363,100.323 16.050 C 100.008 15.517,98.912 15.081,97.889 15.081 C 96.866 15.081,95.600 14.515,95.075 13.824 C 94.368 12.893,94.115 12.829,94.098 13.575 C 94.086 14.130,95.368 15.777,96.948 17.235 C 99.236 19.347,99.820 20.393,99.820 22.374 C 99.820 23.741,100.295 25.487,100.875 26.254 C 101.455 27.021,101.939 28.537,101.952 29.623 C 101.975 31.638,102.547 31.914,106.104 31.626 C 107.295 31.530,107.720 31.881,107.720 32.960 C 107.720 33.956,108.059 34.295,108.779 34.019 C 109.361 33.796,110.354 34.129,110.984 34.760 C 111.615 35.391,112.797 35.907,113.610 35.907 C 114.894 35.907,115.036 36.232,114.689 38.376 C 114.418 40.044,114.620 41.120,115.313 41.695 C 115.876 42.163,116.338 43.088,116.338 43.750 C 116.338 44.413,116.717 45.334,117.180 45.797 C 117.783 46.401,117.812 47.104,117.282 48.275 C 116.717 49.522,116.881 50.848,117.972 53.860 C 119.796 58.892,119.862 62.379,118.157 63.626 C 116.944 64.513,116.985 64.631,118.807 65.461 C 119.878 65.949,121.223 67.254,121.796 68.362 C 122.404 69.538,123.428 70.377,124.255 70.377 C 125.035 70.377,125.673 70.719,125.673 71.138 C 125.673 71.556,126.025 71.681,126.454 71.416 C 127.016 71.068,127.016 70.715,126.454 70.152 C 124.530 68.229,125.646 63.274,128.319 61.867 C 130.578 60.678,131.262 60.819,133.348 62.906 C 134.987 64.544,135.434 64.669,137.048 63.933 C 138.482 63.280,138.664 62.961,137.877 62.475 C 137.082 61.983,137.042 61.504,137.687 60.190 C 138.135 59.276,139.046 57.316,139.710 55.835 L 140.918 53.142 146.940 53.142 L 152.962 53.142 152.962 48.977 C 152.962 44.956,152.151 43.088,150.406 43.088 C 148.514 43.088,144.345 38.181,144.345 35.955 C 144.345 34.743,144.100 33.752,143.802 33.752 C 140.859 33.752,141.580 21.100,144.667 18.569 C 145.877 17.577,145.976 17.120,145.291 15.697 C 144.842 14.765,144.294 13.438,144.073 12.747 C 143.852 12.056,142.978 11.490,142.131 11.490 C 140.721 11.490,140.630 11.227,141.059 8.369 C 141.596 4.786,140.785 3.768,137.702 4.156 " stroke="none" fill="#000000" fill-rule="evenodd"></path></g></svg>