<svg version="1.1" xmlns="http://www.w3.org/2000/svg" xmlns:xlink="http://www.w3.org/1999/xlink" 
    width="400" height="403.5906642728905" viewBox="0, 0, 400,403.5906642728905">
    <g>
        <path d="M250.349 319.355 C 247.678 320.171,246.425 320.239,245.109 319.639 C 242.615 318.503,237.325 318.652,236.300 319.887 C 235.827 320.456,234.414 321.022,233.160 321.143 C 231.254 321.328,230.841 321.699,230.647 323.399 C 230.382 325.714,226.623 325.704,219.749 323.373 C 217.971 322.770,215.430 322.305,214.101 322.340 C 212.772 322.375,211.096 322.089,210.378 321.705 C 207.698 320.271,205.143 322.102,205.630 325.106 C 205.865 326.553,205.744 328.114,205.361 328.576 C 204.843 329.200,205.815 329.424,209.155 329.452 C 218.966 329.534,229.089 333.180,234.483 338.575 C 236.994 341.085,238.585 342.040,241.017 342.494 C 244.971 343.233,245.328 343.565,244.351 345.603 C 241.920 350.675,243.643 352.711,247.243 349.021 C 248.513 347.720,250.713 345.921,252.134 345.022 C 254.135 343.757,254.932 342.606,255.671 339.917 C 256.197 338.008,256.844 336.284,257.110 336.086 C 258.822 334.817,258.938 331.404,257.324 329.790 C 255.612 328.079,255.200 324.942,256.313 322.094 C 257.790 318.313,256.181 317.574,250.349 319.355 " 
            stroke="none" fill="#000000" fill-rule="evenodd"></path>
    </g>
</svg>
