<svg version="1.1" xmlns="http://www.w3.org/2000/svg" xmlns:xlink="http://www.w3.org/1999/xlink" 
    width="400" height="403.5906642728905" viewBox="0, 0, 400,403.5906642728905">
    <g>
        <path d="M236.984 256.457 C 236.391 256.806,235.018 257.407,233.932 257.792 C 232.658 258.244,231.957 259.009,231.957 259.946 C 231.957 260.871,231.483 261.400,230.656 261.400 C 229.477 261.400,226.212 264.906,226.212 266.171 C 226.212 267.088,223.088 273.215,222.120 274.199 C 221.606 274.720,221.185 275.450,221.185 275.821 C 221.185 276.858,217.467 280.790,216.486 280.790 C 215.313 280.790,213.668 282.848,214.319 283.500 C 214.606 283.786,217.303 283.943,220.314 283.849 C 223.756 283.742,227.932 284.185,231.565 285.043 C 234.743 285.794,238.852 286.631,240.697 286.903 C 245.138 287.560,247.126 289.689,247.402 294.084 C 247.549 296.413,248.091 297.872,249.191 298.897 C 250.376 300.001,250.667 300.882,250.358 302.428 C 249.955 304.442,250.016 304.488,253.048 304.488 C 255.239 304.488,256.533 304.911,257.451 305.925 C 258.166 306.715,259.107 307.361,259.544 307.361 C 259.980 307.361,260.756 308.032,261.268 308.852 C 262.232 310.395,264.271 309.690,264.274 307.812 C 264.275 307.366,265.648 306.134,267.326 305.073 C 269.004 304.013,271.493 302.148,272.857 300.929 C 274.221 299.710,276.564 298.346,278.063 297.897 C 279.563 297.447,280.790 296.822,280.790 296.508 C 280.790 295.209,285.819 294.989,287.678 296.207 C 288.698 296.875,289.746 297.190,290.008 296.907 C 290.270 296.624,290.081 296.248,289.587 296.072 C 288.050 295.523,288.602 293.894,290.485 293.421 C 291.472 293.174,292.280 292.654,292.280 292.266 C 292.280 291.879,292.849 291.562,293.544 291.562 C 294.489 291.562,294.806 290.981,294.800 289.259 C 294.794 287.190,295.085 286.871,297.666 286.114 L 300.539 285.272 298.384 284.716 C 297.199 284.410,296.033 283.861,295.794 283.496 C 295.102 282.443,286.485 284.423,285.194 285.931 C 280.867 290.983,274.204 281.333,276.809 273.788 C 277.306 272.347,277.133 272.172,275.211 272.172 C 272.347 272.172,270.422 269.358,270.971 265.974 C 271.187 264.643,271.061 263.555,270.691 263.555 C 270.321 263.555,270.018 262.640,270.018 261.522 C 270.018 259.012,267.462 257.415,264.504 258.075 C 253.443 260.546,251.028 260.727,249.854 259.171 C 248.960 257.987,247.755 257.608,244.208 257.400 C 241.727 257.255,239.329 256.840,238.879 256.479 C 238.400 256.094,237.615 256.085,236.984 256.457 " 
            stroke="none" fill="#000000" fill-rule="evenodd"></path>
    </g>
</svg>
