<svg version="1.1" xmlns="http://www.w3.org/2000/svg" xmlns:xlink="http://www.w3.org/1999/xlink" 
    width="400" height="405" viewBox="0, 0, 400,405">
    <g>
        <path 
            data-layer="estado" data-layer-name="to" data-layer-group="norte" stroke="none" fill="#000000"
            d="M257.092 109.636 C 257.092 109.969,258.061 110.671,259.246 111.195 C 261.291 112.101,262.263 114.183,260.640 114.183 C 260.222 114.183,260.083 114.513,260.333 114.917 C 260.899 115.833,258.431 121.321,257.441 121.346 C 257.041 121.356,256.395 122.069,256.005 122.930 C 255.615 123.791,254.327 124.842,253.142 125.264 C 251.456 125.865,251.039 126.396,251.225 127.707 C 251.355 128.629,250.958 129.939,250.342 130.620 C 249.326 131.742,249.328 132.010,250.355 133.478 C 252.267 136.206,249.505 143.979,245.907 145.996 C 245.344 146.312,244.883 146.967,244.883 147.452 C 244.883 147.937,244.237 148.888,243.447 149.564 C 242.657 150.240,242.011 151.371,242.011 152.077 C 242.011 152.783,241.581 153.998,241.055 154.777 C 236.202 161.973,233.832 185.724,238.132 184.074 C 238.724 183.847,239.596 184.191,240.070 184.838 C 240.545 185.485,242.454 186.783,244.313 187.723 L 247.692 189.432 248.753 187.814 C 250.874 184.576,257.092 185.221,257.092 188.678 C 257.092 189.441,257.639 189.581,259.246 189.228 C 260.601 188.930,261.400 189.042,261.400 189.530 C 261.400 189.956,262.531 190.305,263.914 190.305 C 265.296 190.305,266.427 190.005,266.427 189.638 C 266.427 189.271,267.478 188.990,268.761 189.012 C 275.072 189.124,282.643 184.080,279.282 182.002 C 278.766 181.684,278.657 180.188,278.969 177.697 C 279.378 174.418,279.237 173.671,277.963 172.398 C 275.703 170.137,277.707 165.664,282.277 162.771 C 285.109 160.978,284.926 160.248,281.508 159.701 C 279.928 159.449,278.636 158.838,278.636 158.344 C 278.636 157.851,278.151 157.045,277.558 156.553 C 276.966 156.061,276.481 154.891,276.481 153.952 C 276.481 153.012,276.213 152.244,275.884 152.244 C 275.556 152.244,274.855 151.436,274.327 150.449 C 273.798 149.461,272.936 148.654,272.410 148.654 C 271.085 148.654,271.193 148.028,273.251 143.761 C 274.283 141.622,275.527 140.036,276.174 140.036 C 276.930 140.036,277.224 139.506,277.070 138.420 C 276.902 137.236,276.456 136.881,275.404 137.092 C 271.415 137.890,270.802 137.450,267.756 131.598 C 267.293 130.709,266.482 129.982,265.953 129.982 C 264.686 129.982,264.710 128.089,265.983 127.601 C 266.529 127.391,267.179 125.983,267.429 124.472 C 268.797 116.183,268.336 113.168,265.442 111.460 C 262.810 109.907,257.092 108.658,257.092 109.636"></path>
    </g>
</svg>
