<svg version="1.1" xmlns="http://www.w3.org/2000/svg" xmlns:xlink="http://www.w3.org/1999/xlink" 
    width="400" height="405" viewBox="0, 0, 400,405">
    <g>
        <path 
            data-layer="bioma" data-layer-name="lines" stroke="none" fill="#000000"
            d="M136.984 3.387 C 135.523 3.608,135.009 4.095,135.009 5.256 C 135.009 7.314,131.208 10.922,129.664 10.329 C 128.955 10.057,127.989 10.476,127.183 11.405 C 126.458 12.242,125.355 12.926,124.734 12.926 C 124.112 12.926,123.381 13.286,123.109 13.727 C 122.813 14.205,121.496 14.377,119.834 14.154 C 116.310 13.681,113.478 14.939,113.471 16.979 C 113.462 19.226,111.748 19.517,110.252 17.526 C 109.013 15.876,107.002 15.162,107.002 16.373 C 107.002 17.328,101.659 16.410,101.042 15.350 C 100.726 14.807,99.548 14.363,98.425 14.363 C 97.273 14.363,96.203 13.893,95.970 13.285 C 95.333 11.626,93.357 11.981,93.357 13.755 C 93.357 14.638,94.589 16.438,96.230 17.953 C 98.517 20.065,99.102 21.112,99.102 23.092 C 99.102 24.459,99.577 26.206,100.157 26.972 C 100.737 27.739,101.221 29.220,101.234 30.263 C 101.258 32.283,103.606 33.466,105.868 32.598 C 106.559 32.332,107.002 32.544,107.002 33.141 C 107.002 34.018,105.366 34.971,101.851 36.138 C 101.190 36.357,100.544 37.251,100.415 38.123 C 100.285 38.996,99.614 39.985,98.923 40.322 C 98.232 40.658,97.101 41.259,96.409 41.656 C 95.718 42.054,94.668 42.568,94.075 42.799 C 91.117 43.951,89.767 44.851,89.767 45.670 C 89.767 46.888,87.552 47.289,85.980 46.357 C 85.025 45.790,84.157 45.916,82.511 46.858 C 79.595 48.527,79.234 48.474,76.371 45.961 C 75.022 44.776,73.283 43.806,72.506 43.806 C 71.385 43.806,71.095 43.313,71.095 41.403 C 71.095 40.030,70.479 38.289,69.659 37.343 C 68.869 36.432,68.223 35.252,68.223 34.720 C 68.223 33.622,66.369 33.402,65.737 34.425 C 65.009 35.603,61.074 37.259,60.646 36.567 C 59.866 35.305,58.169 35.908,58.169 37.447 C 58.169 38.943,57.962 38.977,51.167 38.622 C 42.318 38.160,42.370 38.137,42.370 42.430 L 42.370 45.961 45.525 45.961 C 47.500 45.961,48.818 46.321,49.049 46.923 C 49.540 48.204,48.471 49.856,47.528 49.273 C 47.117 49.019,45.303 49.206,43.498 49.689 L 40.215 50.567 40.215 54.678 C 40.215 58.426,40.406 58.925,42.370 60.323 C 43.555 61.167,44.524 62.410,44.524 63.085 C 44.524 63.760,45.044 65.055,45.680 65.963 C 47.024 67.882,47.246 66.128,41.873 96.113 C 41.444 98.505,39.476 100.117,38.942 98.513 C 38.547 97.329,33.744 97.453,32.373 98.683 C 31.749 99.243,29.138 100.116,26.571 100.623 C 24.004 101.131,21.132 102.128,20.190 102.838 C 19.248 103.548,18.037 104.129,17.497 104.129 C 16.958 104.129,16.517 104.402,16.517 104.734 C 16.517 105.067,15.404 105.939,14.043 106.672 C 12.090 107.724,11.471 108.583,11.105 110.749 C 10.850 112.258,10.228 113.906,9.724 114.410 C 8.262 115.873,7.756 118.318,8.592 119.879 C 9.269 121.146,9.014 121.499,6.488 122.788 C 3.600 124.261,2.276 126.674,3.132 128.903 C 3.378 129.547,3.139 129.982,2.539 129.982 C 0.956 129.982,0.335 132.952,1.707 133.956 C 2.348 134.425,2.873 135.338,2.873 135.986 C 2.873 136.633,3.161 137.163,3.513 137.163 C 3.865 137.163,4.341 137.890,4.571 138.779 C 4.801 139.668,6.290 141.849,7.880 143.627 C 10.966 147.078,11.420 148.450,9.695 149.112 C 7.520 149.947,8.545 151.524,11.311 151.598 C 15.971 151.721,17.502 152.468,18.218 154.965 L 18.879 157.271 24.161 157.271 C 27.204 157.271,29.443 156.967,29.443 156.553 C 29.443 156.158,29.830 155.835,30.302 155.835 C 30.774 155.835,31.997 155.033,33.020 154.053 L 34.879 152.272 34.598 159.277 C 34.279 167.204,35.398 168.945,39.981 167.655 C 42.710 166.887,52.722 167.207,53.022 168.072 C 53.655 169.893,58.298 168.268,60.515 165.448 C 61.229 164.542,62.238 163.963,62.758 164.163 C 63.659 164.508,66.174 163.166,71.291 159.611 C 75.394 156.760,78.504 155.682,82.746 155.642 C 85.186 155.619,86.924 155.281,86.968 154.821 C 87.008 154.391,87.301 155.141,87.618 156.487 C 87.962 157.947,87.896 159.592,87.455 160.561 C 86.945 161.680,86.948 162.855,87.463 164.332 C 87.874 165.513,88.034 167.800,87.817 169.415 C 87.557 171.354,87.699 172.352,88.236 172.352 C 88.683 172.352,89.048 172.837,89.048 173.429 C 89.048 174.022,89.349 174.506,89.717 174.506 C 90.084 174.506,90.488 175.197,90.614 176.042 C 90.746 176.920,91.904 178.144,93.321 178.901 C 94.684 179.629,96.073 180.715,96.409 181.315 C 96.845 182.094,98.203 182.406,101.155 182.406 C 103.680 182.406,105.834 182.816,106.685 183.460 C 107.452 184.040,108.588 184.525,109.211 184.537 C 109.833 184.550,111.065 185.330,111.949 186.271 C 112.858 187.238,114.787 188.179,116.386 188.434 C 118.195 188.724,119.959 189.666,121.280 191.048 C 123.098 192.950,123.787 193.195,127.013 193.080 C 131.503 192.922,136.352 194.904,136.759 197.064 C 136.914 197.889,137.501 200.664,138.063 203.232 L 139.084 207.899 137.406 208.127 C 135.274 208.415,135.292 209.035,137.488 211.099 C 138.830 212.359,139.300 213.629,139.463 216.430 C 139.641 219.499,139.914 220.131,141.113 220.251 C 141.903 220.330,146.045 220.605,150.318 220.862 C 157.192 221.276,158.023 221.466,157.530 222.514 C 155.630 226.553,158.342 232.675,162.032 232.675 C 163.331 232.675,163.765 233.188,164.136 235.163 C 164.393 236.531,165.033 238.008,165.558 238.444 C 166.345 239.097,166.267 239.813,165.112 242.506 C 164.342 244.304,163.785 246.140,163.876 246.586 C 163.967 247.032,163.164 249.120,162.092 251.226 C 159.733 255.863,159.719 256.087,161.759 256.660 C 163.345 257.106,163.348 257.130,161.939 257.927 C 161.149 258.374,160.403 258.819,160.281 258.916 C 160.159 259.012,160.713 261.084,161.512 263.518 C 162.678 267.072,162.881 269.034,162.540 273.470 L 162.115 278.995 165.998 279.892 C 170.779 280.998,176.110 281.053,177.154 280.009 C 177.716 279.447,178.070 279.447,178.417 280.009 C 178.683 280.439,179.811 280.790,180.924 280.790 C 183.367 280.790,184.413 281.920,184.976 285.167 C 185.209 286.512,185.672 288.420,186.005 289.408 C 186.338 290.395,186.815 292.738,187.066 294.614 C 187.559 298.315,189.562 299.091,194.134 297.353 C 196.932 296.289,198.541 297.926,198.428 301.722 C 198.304 305.906,197.475 310.156,196.689 310.641 C 194.488 312.002,196.108 314.635,199.008 314.411 C 201.095 314.250,202.122 314.500,202.497 315.260 C 204.680 319.691,205.058 321.063,204.969 324.237 C 204.859 328.193,202.439 330.620,196.724 332.509 C 195.317 332.974,193.110 334.276,191.819 335.404 C 190.528 336.531,188.525 337.872,187.367 338.385 C 186.209 338.897,185.082 339.883,184.862 340.574 C 184.643 341.265,184.000 341.831,183.435 341.831 C 182.869 341.831,182.404 342.074,182.401 342.370 C 182.399 342.666,180.702 344.724,178.631 346.944 C 176.560 349.164,174.332 351.587,173.679 352.330 C 173.027 353.073,171.007 355.080,169.191 356.790 C 167.375 358.500,165.889 360.358,165.889 360.919 C 165.889 362.301,169.757 362.257,170.916 360.862 C 172.770 358.627,181.599 364.968,181.665 368.582 C 181.693 370.126,183.017 370.193,185.072 368.753 C 186.482 367.765,186.707 367.790,187.575 369.029 C 188.584 370.469,193.396 373.429,194.728 373.429 C 195.162 373.429,196.769 374.560,198.299 375.943 C 199.829 377.325,201.561 378.456,202.147 378.456 C 202.734 378.456,204.030 379.750,205.028 381.331 C 206.026 382.912,207.773 384.608,208.910 385.101 C 211.162 386.076,210.956 389.228,208.641 389.228 C 207.981 389.228,207.536 389.875,207.531 390.844 C 207.525 391.732,207.327 393.183,207.090 394.067 C 206.392 396.671,208.526 396.788,212.084 394.341 C 215.400 392.059,217.708 388.861,218.598 385.313 C 219.263 382.666,224.714 377.257,226.382 377.590 C 228.664 378.046,238.766 366.213,240.979 360.491 C 242.217 357.291,247.019 350.216,249.154 348.447 C 249.767 347.938,251.447 346.744,252.886 345.793 C 254.961 344.422,255.695 343.312,256.433 340.434 C 256.944 338.438,257.574 336.804,257.832 336.804 C 259.713 336.804,259.934 330.964,258.122 329.152 C 256.491 327.521,256.295 326.883,256.743 324.667 C 257.030 323.245,257.338 321.113,257.429 319.928 C 257.519 318.743,257.642 317.365,257.701 316.865 C 257.761 316.365,259.425 314.449,261.400 312.608 C 263.375 310.767,264.992 308.914,264.992 308.490 C 264.993 308.066,266.366 306.852,268.044 305.791 C 269.722 304.731,272.211 302.866,273.575 301.647 C 274.939 300.429,277.282 299.064,278.782 298.615 C 280.281 298.165,281.508 297.561,281.508 297.271 C 281.508 296.086,285.301 295.838,286.945 296.915 C 287.877 297.526,289.135 298.025,289.741 298.025 C 291.057 298.025,291.256 295.179,289.946 295.096 C 289.452 295.065,289.937 294.715,291.023 294.318 C 292.110 293.921,292.998 293.336,292.998 293.018 C 292.998 292.700,294.162 292.222,295.583 291.955 C 297.685 291.561,298.101 291.210,297.805 290.080 C 297.605 289.315,297.734 288.689,298.092 288.689 C 298.450 288.689,298.743 289.174,298.743 289.767 C 298.743 290.359,298.986 290.839,299.282 290.833 C 299.889 290.821,304.465 289.238,305.566 288.659 C 305.961 288.452,310.227 288.293,315.047 288.306 C 323.993 288.331,326.128 287.440,324.281 284.452 C 323.693 283.500,326.871 281.117,330.521 279.773 C 333.984 278.497,334.439 277.673,333.292 274.748 C 332.670 273.161,335.546 266.788,337.165 266.167 C 338.401 265.693,341.831 260.393,341.831 258.956 C 341.831 258.386,342.882 256.868,344.165 255.582 C 346.402 253.342,346.492 253.033,346.325 248.203 C 346.140 242.862,348.106 236.984,350.077 236.984 C 351.415 236.984,351.885 235.306,351.885 230.538 C 351.885 228.242,352.537 224.252,353.334 221.671 C 354.628 217.481,354.704 216.277,354.039 210.409 C 353.527 205.885,353.526 201.981,354.036 197.874 C 354.444 194.594,354.605 191.461,354.394 190.912 C 353.981 189.834,357.407 187.433,359.358 187.433 C 360.735 187.433,366.364 179.970,368.809 174.904 C 371.518 169.289,375.416 164.449,378.145 163.309 C 379.501 162.742,380.610 161.870,380.610 161.371 C 380.610 160.871,381.176 159.949,381.867 159.320 C 393.594 148.660,398.092 135.761,394.526 123.015 C 393.885 120.725,392.888 117.061,392.309 114.873 C 390.513 108.079,389.635 107.401,382.267 107.115 C 378.789 106.980,375.636 106.576,375.260 106.218 C 374.885 105.859,373.835 105.566,372.926 105.566 C 371.988 105.566,371.275 105.131,371.275 104.559 C 371.275 104.005,370.346 103.228,369.211 102.832 C 368.076 102.437,365.184 100.143,362.783 97.735 C 360.383 95.327,358.231 93.357,358.000 93.357 C 357.770 93.357,355.141 91.694,352.158 89.661 C 344.299 84.306,342.250 83.742,334.589 84.826 C 328.988 85.619,328.129 85.585,326.485 84.508 C 325.474 83.846,323.293 83.303,321.639 83.303 C 319.968 83.303,317.004 82.541,314.971 81.588 C 309.866 79.195,305.715 78.589,304.278 80.025 C 302.874 81.430,299.461 81.521,299.461 80.154 C 299.461 76.248,291.698 67.839,290.601 70.557 C 290.356 71.165,290.221 71.104,290.182 70.367 C 290.119 69.148,285.996 67.154,281.983 66.402 C 280.528 66.129,279.167 65.629,278.958 65.290 C 278.137 63.963,268.272 61.608,265.054 61.970 C 261.007 62.426,258.528 61.535,258.528 59.623 C 258.528 58.431,258.060 58.169,255.933 58.169 C 252.895 58.169,247.953 55.612,247.356 53.732 C 247.084 52.874,246.244 52.424,244.919 52.424 C 242.375 52.424,241.719 50.425,243.143 47.016 C 245.121 42.284,244.180 38.061,241.149 38.061 C 240.383 38.061,239.856 37.534,239.856 36.768 C 239.856 35.180,238.512 33.752,237.016 33.752 C 235.478 33.752,232.632 26.159,232.141 20.746 C 231.604 14.820,226.212 7.560,226.212 12.762 C 226.212 13.520,225.385 15.078,224.375 16.226 C 223.364 17.373,222.026 19.282,221.402 20.467 C 220.777 21.652,220.029 22.783,219.739 22.980 C 219.448 23.178,218.473 25.117,217.571 27.289 C 215.094 33.255,215.188 33.206,205.983 33.379 C 198.681 33.516,197.719 33.387,196.610 32.121 C 195.912 31.323,194.897 30.893,194.276 31.131 C 193.672 31.363,193.178 31.203,193.178 30.776 C 193.178 30.270,192.363 30.182,190.844 30.525 C 189.560 30.815,186.981 31.061,185.113 31.073 C 181.377 31.097,180.220 32.446,181.648 35.114 C 182.065 35.893,182.406 36.681,182.406 36.865 C 182.406 37.276,174.401 36.813,170.806 36.193 C 168.607 35.815,168.050 35.987,167.369 37.260 C 166.889 38.157,165.852 38.779,164.838 38.779 C 163.892 38.779,162.649 39.249,162.076 39.822 C 161.502 40.396,160.848 40.680,160.622 40.454 C 159.885 39.717,156.553 40.934,156.553 41.941 C 156.553 43.157,153.596 44.009,152.652 43.064 C 152.269 42.682,151.582 42.370,151.124 42.370 C 149.232 42.370,145.063 37.463,145.063 35.237 C 145.063 34.025,144.820 33.032,144.524 33.029 C 141.827 33.000,142.417 21.590,145.222 19.528 C 146.622 18.500,146.870 16.473,145.833 14.532 C 145.467 13.847,144.993 12.720,144.779 12.029 C 144.565 11.338,143.729 10.772,142.922 10.772 C 141.613 10.772,141.505 10.463,141.914 7.903 C 142.381 4.982,141.414 2.762,139.768 2.980 C 139.323 3.039,138.070 3.222,136.984 3.387 M236.142 362.908 C 235.618 363.906,233.528 366.601,231.499 368.897 C 229.469 371.192,227.207 373.762,226.472 374.607 C 225.736 375.453,224.004 376.336,222.621 376.570 C 220.414 376.943,220.261 376.877,221.364 376.030 C 222.056 375.500,222.621 374.554,222.621 373.928 C 222.621 373.302,223.480 372.368,224.530 371.852 C 225.580 371.337,226.791 370.269,227.223 369.479 C 227.654 368.689,228.187 367.882,228.407 367.684 C 228.627 367.487,229.228 366.283,229.744 365.009 C 230.465 363.226,231.243 362.587,233.122 362.234 C 234.465 361.982,235.754 361.468,235.986 361.092 C 236.902 359.610,237.039 361.203,236.142 362.908 M215.445 385.628 C 214.580 387.244,214.128 387.360,212.567 386.366 C 211.654 385.784,211.762 385.420,213.285 383.965 C 215.357 381.987,216.799 383.098,215.445 385.628 " 
            stroke="#000000" stroke-width="1" fill="transparent"></path>
    </g>
</svg>
