<svg version="1.1" xmlns="http://www.w3.org/2000/svg" xmlns:xlink="http://www.w3.org/1999/xlink" 
    width="400" height="403.5906642728905" viewBox="0, 0, 400,403.5906642728905">
    <g>
        <path d="M137.702 4.156 C 136.225 4.341,135.727 4.800,135.727 5.975 C 135.727 8.055,131.788 11.754,130.056 11.301 C 129.276 11.097,128.332 11.508,127.762 12.300 C 127.229 13.039,126.237 13.645,125.557 13.645 C 124.878 13.645,124.108 13.990,123.847 14.412 C 123.586 14.835,122.032 15.131,120.394 15.072 C 116.021 14.912,114.183 15.669,114.183 17.630 C 114.183 20.325,111.575 20.638,109.473 18.195 C 108.510 17.075,107.721 16.556,107.721 17.042 C 107.720 18.250,101.102 17.363,100.323 16.050 C 100.008 15.517,98.912 15.081,97.889 15.081 C 96.866 15.081,95.600 14.515,95.075 13.824 C 94.368 12.893,94.115 12.829,94.098 13.575 C 94.086 14.130,95.368 15.777,96.948 17.235 C 99.236 19.347,99.820 20.393,99.820 22.374 C 99.820 23.741,100.295 25.487,100.875 26.254 C 101.455 27.021,101.939 28.537,101.952 29.623 C 101.975 31.638,102.547 31.914,106.104 31.626 C 107.354 31.525,107.720 31.873,107.720 33.166 C 107.720 34.756,106.707 35.482,102.569 36.856 C 101.909 37.076,101.262 37.969,101.133 38.841 C 101.004 39.714,100.332 40.703,99.641 41.040 C 98.950 41.376,97.819 41.977,97.127 42.374 C 96.436 42.772,95.386 43.286,94.794 43.517 C 91.854 44.662,90.485 45.566,90.485 46.363 C 90.485 47.616,86.960 48.345,85.752 47.343 C 84.977 46.699,84.341 46.774,82.973 47.671 C 80.380 49.370,78.416 49.104,75.653 46.679 C 74.304 45.494,72.564 44.524,71.788 44.524 C 70.666 44.524,70.377 44.031,70.377 42.121 C 70.377 40.748,69.761 39.007,68.941 38.061 C 68.151 37.150,67.504 35.920,67.504 35.326 C 67.504 34.382,67.348 34.377,66.248 35.288 C 63.500 37.561,61.162 38.337,59.989 37.363 C 59.055 36.588,58.887 36.692,58.887 38.043 C 58.887 39.591,58.686 39.633,51.885 39.482 C 42.498 39.274,43.088 39.080,43.088 42.370 L 43.088 45.242 46.271 45.242 C 48.743 45.242,49.549 45.541,49.878 46.577 C 50.530 48.631,49.553 50.367,47.843 50.195 C 40.951 49.503,37.763 55.813,43.088 59.605 C 44.273 60.449,45.242 61.633,45.242 62.236 C 45.242 62.839,45.780 64.244,46.438 65.357 C 47.745 67.569,47.656 68.544,44.585 85.817 C 42.130 99.623,42.192 99.434,40.008 99.689 C 38.937 99.814,38.061 99.571,38.061 99.150 C 38.061 98.030,34.414 98.214,33.091 99.401 C 32.467 99.961,29.856 100.834,27.289 101.341 C 24.722 101.849,21.850 102.846,20.909 103.556 C 19.967 104.266,18.755 104.847,18.216 104.847 C 17.676 104.847,17.235 105.120,17.235 105.452 C 17.235 105.785,16.122 106.657,14.761 107.390 C 12.808 108.442,12.189 109.301,11.823 111.467 C 11.568 112.977,10.884 114.687,10.303 115.267 C 9.140 116.430,8.954 118.030,9.703 120.416 C 10.114 121.725,9.727 122.220,7.340 123.438 C 4.171 125.055,3.379 126.375,4.028 128.962 C 4.345 130.223,4.168 130.700,3.386 130.700 C 1.898 130.700,1.204 132.810,2.526 133.318 C 3.111 133.542,3.591 134.338,3.591 135.086 C 3.591 135.833,3.879 136.445,4.231 136.445 C 4.583 136.445,5.059 137.172,5.290 138.061 C 5.520 138.950,7.008 141.131,8.598 142.908 C 11.691 146.367,12.262 148.851,10.233 150.032 C 9.219 150.623,9.531 150.782,11.849 150.858 C 16.719 151.016,18.214 151.731,18.936 154.247 C 19.603 156.571,28.725 158.051,28.725 155.835 C 28.725 155.440,29.154 155.117,29.677 155.117 C 30.201 155.117,31.388 154.309,32.316 153.321 C 35.360 150.081,35.809 150.844,35.385 158.535 C 34.959 166.265,36.324 168.690,39.996 166.724 C 41.788 165.765,53.294 166.409,53.972 167.506 C 54.670 168.636,57.948 167.081,59.782 164.749 C 60.560 163.761,61.727 163.023,62.375 163.109 C 63.601 163.272,66.762 161.659,70.636 158.893 C 74.536 156.107,77.661 155.002,81.984 154.878 C 84.288 154.812,86.173 154.515,86.174 154.219 C 86.175 153.923,86.619 153.680,87.161 153.680 C 88.438 153.680,89.319 159.015,88.343 160.839 C 87.844 161.770,87.852 162.836,88.368 164.194 C 88.785 165.288,88.918 167.410,88.665 168.909 C 88.366 170.676,88.479 171.634,88.985 171.634 C 89.415 171.634,89.767 172.118,89.767 172.711 C 89.767 173.303,90.067 173.788,90.435 173.788 C 90.802 173.788,91.206 174.479,91.332 175.323 C 91.464 176.201,92.623 177.425,94.039 178.183 C 95.402 178.911,96.792 179.997,97.127 180.597 C 97.563 181.375,98.921 181.688,101.873 181.688 C 104.398 181.688,106.552 182.098,107.403 182.742 C 108.170 183.322,109.306 183.807,109.929 183.819 C 110.551 183.832,111.784 184.612,112.668 185.553 C 113.576 186.520,115.505 187.460,117.104 187.716 C 118.897 188.003,120.675 188.946,121.961 190.291 C 123.734 192.147,124.439 192.395,127.550 192.258 C 131.951 192.065,137.069 194.173,137.474 196.346 C 137.627 197.171,138.267 200.154,138.894 202.975 C 140.312 209.346,140.338 208.977,138.474 208.977 L 136.913 208.977 138.429 210.592 C 139.457 211.689,140.017 213.363,140.170 215.799 L 140.395 219.390 145.601 219.601 C 149.642 219.764,150.808 219.591,150.808 218.824 C 150.808 218.281,151.616 217.405,152.603 216.876 C 153.591 216.348,154.399 215.485,154.399 214.959 C 154.399 213.550,155.626 213.795,157.389 215.557 L 158.942 217.111 160.468 215.198 C 162.374 212.807,163.450 212.772,164.029 215.081 C 164.277 216.068,164.948 216.876,165.521 216.876 C 166.153 216.876,166.399 216.451,166.146 215.793 C 165.560 214.267,167.801 211.131,169.478 211.131 C 170.652 211.131,170.810 210.782,170.449 208.977 C 170.060 207.035,170.198 206.822,171.845 206.822 C 173.437 206.822,173.763 206.395,174.382 203.490 C 175.260 199.377,173.619 196.758,171.031 198.143 C 170.230 198.572,168.875 198.923,168.022 198.923 C 165.740 198.923,162.530 201.488,161.966 203.762 C 159.936 211.940,147.794 209.885,146.030 201.065 C 145.798 199.905,145.162 198.585,144.617 198.133 C 143.049 196.832,143.457 195.530,145.601 194.992 L 147.576 194.496 145.341 192.499 C 141.122 188.729,140.361 186.677,142.114 183.800 C 144.036 180.648,144.011 180.377,141.831 180.794 C 139.743 181.193,139.164 178.585,141.170 177.815 C 142.001 177.497,142.184 176.830,141.854 175.327 C 141.370 173.126,143.938 171.300,146.966 171.691 C 147.697 171.785,149.218 171.605,150.346 171.292 C 151.475 170.978,152.606 171.007,152.860 171.357 C 153.114 171.707,154.291 171.993,155.476 171.993 C 157.379 171.993,157.710 172.316,158.313 174.760 C 158.756 176.550,159.833 178.164,161.366 179.333 C 163.688 181.105,164.440 183.321,163.016 184.201 C 161.572 185.093,162.355 186.613,164.501 187.084 C 165.713 187.350,166.878 188.022,167.091 188.578 C 167.304 189.133,167.929 189.587,168.479 189.587 C 169.663 189.587,169.800 191.133,168.713 192.221 C 168.170 192.764,168.294 193.120,169.138 193.444 C 169.923 193.746,170.448 193.471,170.675 192.642 C 170.865 191.949,172.451 190.506,174.199 189.435 C 177.162 187.621,178.324 185.996,176.661 185.996 C 175.515 185.996,175.831 182.602,177.020 182.146 C 177.612 181.919,178.097 181.141,178.097 180.418 C 178.097 178.627,179.483 177.379,181.472 177.379 C 182.645 177.379,183.124 177.795,183.124 178.815 C 183.124 179.868,183.603 180.251,184.919 180.251 C 186.345 180.251,186.715 180.613,186.715 182.010 C 186.715 182.977,187.489 184.604,188.436 185.625 L 190.157 187.483 191.726 184.944 C 193.250 182.478,196.053 181.414,196.048 183.303 C 196.044 184.445,193.479 188.736,191.541 190.844 C 190.724 191.732,190.425 192.460,190.877 192.460 C 191.329 192.460,192.415 191.490,193.291 190.305 C 195.284 187.610,197.851 187.319,197.213 189.861 C 196.583 192.373,201.125 193.471,205.936 191.970 C 211.686 190.175,216.530 190.100,219.772 191.753 L 222.621 193.207 222.621 191.457 C 222.621 190.494,222.964 189.593,223.383 189.453 C 223.801 189.313,224.168 188.075,224.198 186.700 C 224.227 185.326,224.700 183.312,225.250 182.226 C 225.799 181.140,225.961 180.251,225.610 180.251 C 225.259 180.251,224.971 178.959,224.971 177.379 C 224.971 175.432,225.287 174.506,225.951 174.506 C 226.489 174.506,226.930 174.183,226.930 173.788 C 226.930 173.393,227.442 173.070,228.069 173.070 C 228.832 173.070,228.355 172.242,226.620 170.557 C 225.196 169.174,223.714 168.043,223.326 168.043 C 222.938 168.043,222.621 167.235,222.621 166.248 C 222.621 164.554,223.925 163.842,225.020 164.936 C 226.275 166.191,229.012 165.487,230.110 163.627 C 231.197 161.788,231.181 161.658,229.813 161.224 C 229.017 160.972,228.366 160.162,228.366 159.425 C 228.366 157.843,231.039 156.784,232.173 157.918 C 232.607 158.352,233.521 158.707,234.204 158.707 C 234.886 158.707,235.953 159.215,236.573 159.836 C 237.599 160.862,237.702 160.800,237.702 159.160 C 237.702 158.168,238.000 157.172,238.364 156.947 C 238.727 156.722,239.599 155.006,240.301 153.134 C 241.993 148.618,244.234 145.213,245.781 144.808 C 246.472 144.627,247.038 143.999,247.038 143.412 C 247.038 142.824,247.522 142.158,248.115 141.931 C 248.707 141.703,249.192 140.861,249.192 140.058 C 249.192 139.078,249.663 138.600,250.628 138.600 C 251.418 138.600,252.065 138.953,252.065 139.384 C 252.065 139.815,252.711 140.990,253.501 141.994 C 254.404 143.143,254.937 144.908,254.937 146.750 C 254.937 149.488,255.015 149.601,256.138 148.478 C 257.649 146.968,257.521 140.522,255.905 136.653 C 254.460 133.195,255.144 127.396,257.264 125.135 C 259.004 123.278,260.682 123.018,260.682 124.606 C 260.682 125.660,260.382 126.423,258.640 129.793 C 258.183 130.676,257.830 131.969,257.856 132.665 C 257.882 133.404,258.372 132.884,259.031 131.418 C 259.652 130.036,260.520 128.129,260.960 127.180 C 261.400 126.232,261.658 124.858,261.535 124.128 C 261.411 123.398,261.606 122.801,261.967 122.801 C 262.329 122.801,261.952 120.882,261.131 118.536 C 259.544 114.006,259.861 112.607,262.151 114.037 C 263.983 115.181,263.961 114.055,262.118 112.388 C 259.575 110.086,261.085 107.386,264.003 109.019 C 264.836 109.486,265.669 109.463,266.489 108.951 C 267.426 108.366,268.193 108.489,269.679 109.462 C 271.175 110.443,271.764 110.535,272.184 109.855 C 272.853 108.773,277.490 109.474,279.892 111.021 C 281.191 111.857,281.508 111.875,281.508 111.109 C 281.508 110.585,282.613 109.085,283.963 107.777 C 286.066 105.738,286.361 105.050,286.023 102.968 C 285.577 100.221,286.585 99.792,289.191 101.617 C 290.855 102.782,295.153 99.636,295.153 97.252 C 295.153 96.690,295.468 96.230,295.853 96.230 C 296.238 96.230,296.374 95.335,296.155 94.241 C 295.858 92.753,296.215 91.759,297.575 90.292 C 299.398 88.325,301.616 87.666,301.616 89.091 C 301.616 89.509,301.958 89.640,302.376 89.382 C 302.804 89.117,302.942 88.029,302.693 86.894 C 302.444 85.759,302.582 84.671,303.010 84.407 C 304.754 83.329,303.745 81.867,301.257 81.867 C 299.629 81.867,298.743 81.527,298.743 80.900 C 298.743 80.369,298.254 78.995,297.657 77.848 C 296.194 75.041,291.586 69.791,291.573 70.916 C 291.567 71.409,291.077 71.813,290.485 71.813 C 289.892 71.813,289.408 71.405,289.408 70.905 C 289.408 69.848,285.076 67.835,281.265 67.120 C 279.810 66.847,278.449 66.347,278.240 66.009 C 277.399 64.648,267.647 62.347,264.634 62.799 C 260.828 63.370,257.810 62.283,257.810 60.341 C 257.810 59.149,257.342 58.887,255.214 58.887 C 252.177 58.887,247.235 56.331,246.638 54.450 C 246.363 53.582,245.525 53.142,244.149 53.142 C 241.494 53.142,240.565 49.676,242.318 46.313 C 244.356 42.404,243.448 38.779,240.431 38.779 C 239.665 38.779,239.138 38.253,239.138 37.487 C 239.138 35.898,237.794 34.470,236.298 34.470 C 234.796 34.470,231.972 27.061,231.449 21.747 C 230.904 16.213,226.930 8.912,226.930 13.445 C 226.930 14.222,226.103 15.796,225.093 16.944 C 224.082 18.092,222.744 20.000,222.120 21.185 C 221.495 22.370,220.747 23.501,220.457 23.698 C 220.166 23.896,219.191 25.835,218.289 28.007 C 215.765 34.086,215.937 34.001,205.873 34.177 C 198.008 34.314,196.878 34.183,196.048 33.030 C 195.531 32.314,194.642 31.908,194.071 32.127 C 193.500 32.346,192.772 32.103,192.453 31.588 C 191.981 30.824,191.467 30.819,189.670 31.564 C 188.457 32.066,186.336 32.345,184.956 32.184 C 182.314 31.876,181.352 32.783,182.461 34.536 C 184.529 37.801,178.574 39.062,170.795 37.005 C 169.279 36.604,168.712 36.811,168.077 37.998 C 167.606 38.877,166.564 39.497,165.556 39.497 C 164.610 39.497,163.321 40.013,162.690 40.644 C 162.059 41.275,161.067 41.608,160.484 41.385 C 159.052 40.835,157.271 41.591,157.271 42.749 C 157.271 44.001,153.059 44.909,152.030 43.879 C 151.595 43.444,150.864 43.088,150.406 43.088 C 148.514 43.088,144.345 38.181,144.345 35.955 C 144.345 34.743,144.100 33.752,143.802 33.752 C 140.859 33.752,141.580 21.100,144.667 18.569 C 145.877 17.577,145.976 17.120,145.291 15.697 C 144.842 14.765,144.294 13.438,144.073 12.747 C 143.852 12.056,142.978 11.490,142.131 11.490 C 140.721 11.490,140.630 11.227,141.059 8.369 C 141.596 4.786,140.785 3.768,137.702 4.156 " 
            stroke="none" fill="#000000" fill-rule="evenodd"></path>
    </g>
</svg>
