<svg id="svg" version="1.1" xmlns="http://www.w3.org/2000/svg" xmlns:xlink="http://www.w3.org/1999/xlink" width="400" height="403.5906642728905" viewBox="0, 0, 400,403.5906642728905"><g id="svgg"><path id="path0" d="M323.557 85.996 C 325.248 89.238,323.980 91.248,320.927 90.162 C 320.378 89.967,319.282 90.320,318.492 90.946 C 317.497 91.736,317.331 92.189,317.953 92.422 C 319.638 93.054,319.016 95.636,317.235 95.406 C 315.383 95.166,313.623 96.042,314.172 96.930 C 314.376 97.261,315.190 97.362,315.979 97.156 C 317.681 96.711,318.200 102.975,316.517 103.654 C 315.799 103.943,315.799 104.027,316.517 104.073 C 317.869 104.158,317.734 110.592,316.380 110.592 C 315.811 110.592,315.145 110.269,314.901 109.874 C 314.084 108.551,313.106 109.138,313.106 110.952 C 313.106 112.016,312.695 112.747,312.096 112.747 C 311.430 112.747,311.218 113.250,311.473 114.226 C 311.754 115.302,311.456 115.810,310.378 116.092 C 308.035 116.704,309.250 118.664,311.646 118.138 C 314.028 117.615,315.054 118.728,315.118 121.903 C 315.187 125.381,310.589 127.408,310.104 124.114 C 309.978 123.256,309.487 122.427,309.014 122.271 C 308.404 122.070,308.276 122.739,308.574 124.577 C 308.900 126.585,308.663 127.523,307.517 128.754 C 305.366 131.065,303.808 135.637,303.979 139.134 C 304.203 143.686,304.940 142.823,305.444 137.419 C 305.913 132.397,307.271 129.982,309.627 129.982 C 311.285 129.982,311.446 132.986,309.858 134.304 C 309.257 134.803,308.942 135.770,309.158 136.452 C 309.375 137.134,309.206 138.602,308.783 139.715 C 308.161 141.350,308.226 141.856,309.124 142.359 C 309.790 142.732,310.233 143.969,310.233 145.458 C 310.233 148.152,306.735 149.126,304.558 147.038 C 303.793 146.304,303.704 146.664,304.071 149.013 C 304.495 151.722,304.373 151.980,301.923 153.552 C 300.494 154.469,299.522 155.417,299.764 155.659 C 300.006 155.900,300.586 155.716,301.053 155.248 C 302.409 153.892,304.484 154.262,305.117 155.973 C 305.683 157.503,305.713 157.493,306.185 155.614 C 306.822 153.077,308.797 153.045,308.797 155.572 C 308.797 156.612,309.189 158.771,309.668 160.369 C 310.349 162.644,310.349 163.337,309.668 163.564 C 308.718 163.880,308.441 167.325,309.366 167.325 C 309.678 167.325,311.362 165.871,313.106 164.093 C 318.864 158.226,320.207 160.711,314.615 166.885 C 310.820 171.076,309.677 174.200,310.823 177.247 C 312.391 181.414,312.389 183.757,310.817 186.423 C 308.598 190.184,309.273 201.077,311.725 201.077 C 312.090 201.077,312.388 201.759,312.388 202.591 C 312.388 203.818,312.070 204.026,310.717 203.686 C 309.333 203.339,309.055 203.542,309.101 204.865 C 309.213 208.107,304.983 207.435,303.417 203.962 C 302.440 201.797,301.891 201.247,301.316 201.861 C 300.755 202.462,300.788 202.785,301.436 203.022 C 303.179 203.661,302.453 208.073,300.180 210.662 C 298.995 212.012,298.025 213.323,298.025 213.576 C 298.025 214.544,301.581 211.653,301.995 210.349 C 302.235 209.594,303.055 208.977,303.819 208.977 C 305.528 208.977,305.742 211.947,304.129 213.285 C 303.537 213.777,303.052 215.149,303.052 216.334 C 303.052 218.167,303.212 218.355,304.129 217.594 C 304.722 217.103,305.206 216.113,305.206 215.394 C 305.206 214.676,305.530 213.889,305.925 213.645 C 306.320 213.400,306.643 212.388,306.643 211.395 C 306.643 208.504,309.042 209.500,309.546 212.599 C 310.018 215.504,310.726 216.876,311.754 216.876 C 312.149 216.876,312.286 216.574,312.057 216.204 C 311.829 215.834,311.937 214.219,312.298 212.613 C 312.680 210.909,312.686 209.695,312.311 209.695 C 311.116 209.695,311.661 207.604,313.241 206.132 C 315.554 203.978,316.973 204.207,316.398 206.643 C 315.601 210.025,315.163 217.594,315.765 217.593 C 316.080 217.592,316.373 216.703,316.416 215.618 C 316.611 210.674,321.634 206.598,326.095 207.765 C 327.560 208.148,328.812 207.398,332.239 204.085 C 333.345 203.014,334.438 202.577,335.312 202.855 C 336.300 203.168,337.118 202.645,338.326 200.924 C 339.238 199.626,340.238 198.456,340.549 198.324 C 341.785 197.800,341.143 193.896,339.820 193.896 C 336.902 193.896,335.775 190.703,338.420 189.930 C 341.018 189.171,346.709 185.103,347.661 183.324 C 348.143 182.424,348.986 181.688,349.534 181.688 C 350.347 181.688,350.325 181.395,349.412 180.092 C 347.498 177.358,347.941 175.224,350.424 175.224 C 352.717 175.224,353.998 176.773,354.096 179.666 C 354.157 181.447,354.376 181.052,355.068 177.917 C 355.513 175.897,358.318 174.984,358.377 176.840 C 358.393 177.334,358.905 176.817,359.515 175.691 C 360.365 174.123,361.019 173.719,362.314 173.967 C 363.808 174.253,364.061 173.951,364.498 171.362 C 364.770 169.751,365.512 167.641,366.146 166.673 C 366.781 165.705,367.202 164.163,367.081 163.246 C 366.946 162.211,367.234 161.580,367.843 161.580 C 368.382 161.580,369.132 160.557,369.510 159.307 C 370.517 155.976,372.450 155.049,374.128 157.092 C 374.858 157.980,376.049 158.682,376.776 158.651 C 377.531 158.618,377.712 158.439,377.199 158.232 C 375.984 157.741,376.067 155.012,377.374 152.506 C 378.619 150.119,378.760 148.208,377.738 147.576 C 376.135 146.586,376.968 143.667,378.995 143.171 C 380.081 142.905,381.131 142.488,381.329 142.245 C 381.526 142.001,382.657 141.362,383.842 140.825 C 385.041 140.281,385.598 139.704,385.099 139.523 C 383.660 139.002,384.065 137.163,385.619 137.163 C 387.696 137.163,389.846 132.898,388.226 131.992 C 386.520 131.037,386.823 129.593,389.034 128.145 C 390.191 127.387,390.632 126.740,390.111 126.566 C 388.992 126.193,388.967 124.068,390.068 122.966 C 390.710 122.324,390.676 121.421,389.925 119.147 C 389.033 116.444,389.061 116.081,390.223 115.232 C 391.444 114.339,391.445 114.173,390.255 111.666 C 388.708 108.406,386.969 107.720,380.247 107.720 C 377.334 107.720,374.750 107.397,374.506 107.002 C 374.262 106.607,373.274 106.284,372.310 106.284 C 371.284 106.284,370.557 105.866,370.557 105.277 C 370.557 104.723,369.628 103.946,368.493 103.550 C 367.358 103.155,364.465 100.861,362.065 98.453 C 359.665 96.045,357.522 94.075,357.304 94.075 C 357.085 94.075,354.260 92.294,351.025 90.116 C 343.905 85.323,341.218 84.485,336.089 85.457 C 330.775 86.465,327.258 86.352,325.631 85.122 C 323.302 83.360,322.384 83.747,323.557 85.996 " stroke="none" fill="#000000" fill-rule="evenodd"></path></g></svg>