<svg version="1.1" xmlns="http://www.w3.org/2000/svg" xmlns:xlink="http://www.w3.org/1999/xlink" 
    width="400" height="405" viewBox="0, 0, 400,405">
    <g>
        <path 
            data-layer="bioma" data-layer-name="cerrado" stroke="none" fill="#000000"
            d="M305.386 80.217 C 304.892 80.401,304.488 81.474,304.488 82.603 C 304.488 83.731,304.219 84.821,303.890 85.025 C 303.561 85.228,303.435 86.375,303.611 87.572 C 303.960 89.949,301.990 91.535,300.894 89.760 C 299.832 88.042,296.575 92.388,297.070 94.864 C 297.299 96.010,297.202 96.948,296.854 96.948 C 296.506 96.948,295.804 97.890,295.295 99.042 C 293.736 102.564,291.085 103.863,288.533 102.356 L 286.445 101.122 286.893 103.523 C 287.284 105.618,287.014 106.241,284.784 108.399 C 283.377 109.761,282.226 111.296,282.226 111.811 C 282.226 113.024,281.137 112.999,279.149 111.740 C 276.933 110.338,272.890 109.559,272.890 110.535 C 272.890 111.636,270.627 111.454,269.000 110.223 C 267.961 109.437,267.382 109.380,266.644 109.992 C 265.925 110.590,265.205 110.594,263.918 110.007 C 261.672 108.983,261.014 110.020,262.854 111.685 C 264.453 113.133,264.760 115.619,263.339 115.619 C 262.826 115.619,262.018 115.232,261.544 114.758 C 260.344 113.558,260.454 114.238,262.224 118.968 C 263.235 121.670,263.496 123.179,262.983 123.351 C 262.552 123.494,262.371 124.059,262.580 124.605 C 262.790 125.152,262.478 126.504,261.886 127.611 C 261.294 128.718,260.419 130.673,259.941 131.957 C 258.904 134.740,257.092 135.077,257.092 132.486 C 257.092 130.748,257.318 130.094,259.134 126.581 C 260.404 124.123,260.134 123.827,258.242 125.605 C 255.965 127.744,255.249 132.473,256.641 136.175 C 258.253 140.462,258.614 146.774,257.350 148.579 C 255.620 151.049,254.219 150.483,254.219 147.314 C 254.219 145.626,253.656 143.823,252.783 142.712 C 251.993 141.708,251.346 140.534,251.346 140.102 C 251.346 139.671,251.023 139.318,250.628 139.318 C 250.233 139.318,249.910 139.974,249.910 140.777 C 249.910 141.579,249.457 142.409,248.904 142.622 C 248.350 142.834,247.734 143.632,247.535 144.394 C 247.335 145.157,246.738 145.785,246.207 145.790 C 245.001 145.801,242.690 149.392,241.019 153.853 C 240.317 155.725,239.446 157.440,239.082 157.665 C 238.718 157.890,238.420 158.863,238.420 159.827 C 238.420 160.906,238.006 161.580,237.343 161.580 C 236.750 161.580,236.266 161.263,236.266 160.875 C 236.266 160.488,235.377 159.959,234.291 159.699 C 233.205 159.440,231.982 158.967,231.574 158.649 C 231.166 158.332,230.358 158.376,229.778 158.748 C 228.709 159.436,229.349 160.265,231.598 161.107 C 232.016 161.264,231.754 162.449,230.973 163.941 C 229.577 166.608,226.419 167.436,224.237 165.706 C 223.595 165.198,223.339 165.327,223.339 166.160 C 223.339 166.801,223.657 167.325,224.044 167.325 C 225.016 167.325,229.803 172.051,229.803 173.010 C 229.803 173.438,229.318 173.788,228.725 173.788 C 228.133 173.788,227.648 174.111,227.648 174.506 C 227.648 174.901,227.231 175.224,226.722 175.224 C 225.654 175.224,225.494 178.916,226.530 179.661 C 226.942 179.958,226.846 180.942,226.284 182.175 C 225.776 183.289,225.232 185.493,225.075 187.071 C 224.918 188.650,224.463 190.050,224.065 190.183 C 223.666 190.316,223.339 191.206,223.339 192.160 C 223.339 194.250,222.666 194.312,219.181 192.543 C 216.116 190.986,212.426 191.054,206.494 192.779 C 201.081 194.353,195.742 193.198,196.245 190.563 C 196.683 188.276,195.925 188.432,194.009 191.023 C 192.466 193.110,189.587 193.996,189.587 192.384 C 189.587 191.947,190.407 190.616,191.408 189.425 C 193.727 186.670,195.574 183.124,194.691 183.124 C 194.318 183.124,193.314 184.255,192.460 185.637 C 190.263 189.192,185.996 187.271,185.996 182.728 C 185.996 181.331,185.627 180.969,184.201 180.969 C 182.885 180.969,182.406 180.586,182.406 179.533 C 182.406 178.743,181.986 178.097,181.472 178.097 C 180.133 178.097,178.815 179.604,178.815 181.136 C 178.815 181.859,178.330 182.637,177.738 182.864 C 176.540 183.324,176.250 185.278,177.379 185.278 C 179.405 185.278,177.851 188.357,174.918 190.153 C 173.169 191.224,171.583 192.666,171.394 193.357 C 171.015 194.744,169.698 194.960,168.043 193.907 C 167.152 193.340,167.122 192.969,167.870 191.763 C 168.614 190.562,168.596 190.305,167.767 190.305 C 167.213 190.305,166.586 189.851,166.373 189.296 C 166.160 188.741,164.994 188.069,163.783 187.802 C 161.398 187.279,160.742 184.976,162.478 183.223 C 163.197 182.497,162.884 181.915,160.899 180.289 C 159.420 179.078,158.102 177.144,157.626 175.486 C 156.918 173.023,156.594 172.728,154.744 172.867 C 153.597 172.953,152.445 172.677,152.184 172.254 C 151.850 171.714,151.247 171.732,150.154 172.318 C 149.299 172.775,148.002 172.960,147.273 172.729 C 144.785 171.939,142.419 173.649,142.762 175.989 C 142.977 177.452,142.721 178.214,141.912 178.525 C 140.051 179.239,140.581 180.322,142.549 179.828 C 144.790 179.266,144.976 181.004,143.018 184.201 C 141.503 186.673,142.198 188.426,145.961 191.626 C 148.426 193.723,148.477 195.169,146.107 195.764 C 144.490 196.170,144.395 196.358,145.292 197.393 C 145.850 198.037,146.519 199.461,146.780 200.557 C 148.796 209.039,159.311 210.847,161.247 203.044 C 161.782 200.888,164.987 198.205,167.026 198.205 C 167.727 198.205,169.371 197.818,170.679 197.345 C 172.819 196.571,173.207 196.645,174.547 198.083 C 176.745 200.442,175.342 207.540,172.678 207.540 C 171.143 207.540,170.999 207.779,171.382 209.695 C 171.750 211.533,171.595 211.849,170.328 211.849 C 168.565 211.849,166.544 214.439,167.125 215.954 C 167.350 216.541,167.155 217.256,166.691 217.542 C 166.138 217.884,166.481 218.352,167.688 218.902 C 169.197 219.589,169.602 219.547,169.939 218.667 C 170.507 217.189,172.134 217.323,173.538 218.963 C 174.673 220.289,174.812 220.232,177.920 217.168 C 181.580 213.560,182.904 213.238,183.547 215.799 C 183.865 217.066,184.486 217.594,185.658 217.594 C 186.912 217.594,187.432 218.112,187.782 219.706 C 188.136 221.316,188.703 221.870,190.173 222.039 C 192.339 222.290,193.194 224.820,191.716 226.602 C 191.039 227.417,191.103 227.724,192.020 228.076 C 193.227 228.539,193.629 231.594,192.569 232.249 C 191.864 232.684,192.044 236.708,192.858 238.706 C 193.172 239.478,193.026 241.033,192.519 242.296 C 192.028 243.522,191.480 246.463,191.303 248.833 C 191.126 251.203,190.586 253.465,190.104 253.860 C 189.622 254.255,188.806 255.386,188.291 256.373 C 185.145 262.401,182.141 263.876,180.587 260.155 C 179.383 257.274,178.131 257.839,178.108 261.273 C 178.095 263.242,176.095 263.207,175.122 261.221 C 174.783 260.530,174.242 259.420,173.920 258.755 C 172.808 256.464,171.060 255.907,169.881 257.466 C 168.494 259.301,168.476 260.682,169.838 260.682 C 171.396 260.682,171.164 262.661,169.546 263.175 C 168.095 263.635,166.884 265.709,168.066 265.709 C 168.448 265.709,168.761 266.517,168.761 267.504 C 168.761 268.492,168.438 269.300,168.043 269.300 C 167.648 269.300,167.325 269.748,167.325 270.295 C 167.325 270.842,166.842 272.216,166.252 273.347 C 164.519 276.670,164.860 278.387,167.432 279.283 C 170.413 280.322,175.437 280.290,176.503 279.225 C 177.142 278.585,177.750 278.578,178.980 279.195 C 179.877 279.644,181.417 280.106,182.402 280.221 C 183.631 280.365,184.578 281.220,185.419 282.944 C 186.094 284.327,186.661 284.971,186.680 284.376 C 186.725 282.958,190.621 281.264,192.856 281.691 C 195.059 282.112,195.143 281.363,192.998 280.422 C 190.765 279.442,190.302 275.763,192.412 275.763 C 193.228 275.763,193.896 276.086,193.896 276.481 C 193.896 278.005,196.046 277.106,196.474 275.404 C 197.078 272.997,198.592 273.133,203.029 275.992 C 207.913 279.138,212.316 280.610,213.451 279.476 C 213.913 279.014,214.953 278.633,215.763 278.631 C 216.831 278.627,217.979 277.297,219.948 273.783 C 221.440 271.120,223.056 268.334,223.539 267.592 C 224.233 266.524,224.229 266.175,223.519 265.916 C 222.096 265.399,222.412 262.725,223.878 262.874 C 226.428 263.134,227.648 262.812,227.648 261.881 C 227.648 261.355,228.382 260.532,229.280 260.052 C 230.641 259.323,230.866 258.709,230.641 256.340 C 230.492 254.778,230.687 253.501,231.074 253.501 C 231.985 253.501,234.184 248.981,233.512 248.489 C 232.668 247.871,230.521 244.270,230.521 243.472 C 230.521 242.357,232.857 242.577,234.699 243.867 C 236.261 244.962,236.308 244.941,235.914 243.329 C 235.194 240.376,241.459 237.704,242.370 240.575 C 242.985 242.513,244.728 242.399,245.013 240.402 C 245.139 239.518,245.780 238.691,246.438 238.566 C 247.984 238.272,248.795 240.788,247.770 242.702 C 247.340 243.507,247.244 244.165,247.558 244.165 C 248.433 244.165,250.223 241.070,250.050 239.856 C 249.697 237.376,255.842 236.152,257.258 238.420 C 257.752 239.210,258.724 239.856,259.419 239.856 C 260.114 239.856,260.682 240.216,260.682 240.656 C 260.682 241.199,261.739 241.297,263.977 240.962 C 267.766 240.393,268.390 242.242,264.985 243.948 C 263.795 244.544,263.271 245.332,263.420 246.300 C 263.597 247.442,263.248 247.756,261.805 247.756 C 260.792 247.756,259.964 247.441,259.964 247.056 C 259.964 244.855,251.870 243.201,251.087 245.242 C 250.859 245.835,250.986 246.320,251.369 246.320 C 251.752 246.320,252.065 246.836,252.065 247.467 C 252.065 248.792,243.913 248.264,242.136 246.824 C 241.128 246.008,239.890 247.202,239.867 249.013 C 239.861 249.506,239.364 249.910,238.761 249.910 C 238.119 249.910,237.488 250.801,237.235 252.065 C 236.980 253.340,236.353 254.219,235.697 254.219 C 232.420 254.219,236.202 255.158,240.190 255.334 C 244.412 255.521,244.883 255.403,244.883 254.162 C 244.883 250.193,249.515 254.911,250.147 259.525 C 250.677 263.390,249.750 263.823,246.339 261.301 C 244.449 259.904,244.159 259.867,243.132 260.895 C 242.511 261.516,241.358 262.229,240.570 262.479 C 239.783 262.729,239.138 263.257,239.138 263.652 C 239.138 264.047,239.740 264.179,240.475 263.945 C 241.211 263.712,243.383 264.194,245.302 265.016 C 248.240 266.276,248.907 266.354,249.530 265.510 C 250.436 264.281,253.072 262.830,254.351 262.855 C 255.568 262.879,257.810 267.736,257.810 270.347 C 257.810 272.252,257.673 272.338,255.259 271.946 C 251.437 271.326,250.612 273.934,253.835 276.447 C 257.688 279.450,258.820 281.373,257.910 283.371 C 256.848 285.700,255.298 285.549,254.248 283.015 C 252.778 279.466,250.346 277.603,249.120 279.087 C 248.341 280.032,248.316 280.373,249.013 280.608 C 250.676 281.167,249.927 282.650,247.546 283.511 C 245.551 284.232,244.581 284.146,241.336 282.960 C 239.220 282.187,237.207 281.729,236.860 281.944 C 235.740 282.636,231.957 281.425,231.957 280.374 C 231.957 279.207,230.112 278.990,229.439 280.078 C 228.354 281.835,229.802 283.328,232.665 283.403 C 234.245 283.444,235.944 283.807,236.440 284.209 C 236.937 284.610,239.663 285.167,242.499 285.446 C 248.443 286.030,249.495 286.854,250.197 291.473 C 250.749 295.107,249.335 298.025,247.021 298.025 C 246.238 298.025,245.601 298.508,245.601 299.102 C 245.601 299.709,244.959 300.180,244.130 300.180 C 242.169 300.180,238.694 302.021,238.193 303.325 C 237.639 304.771,239.985 305.548,240.944 304.236 C 241.849 302.998,247.469 301.352,248.907 301.904 C 249.464 302.118,251.013 301.183,252.399 299.798 C 253.769 298.428,255.627 297.270,256.529 297.224 C 257.745 297.162,257.844 297.056,256.912 296.812 C 254.106 296.079,255.650 294.510,259.425 294.257 C 262.995 294.018,263.071 293.973,260.862 293.412 C 257.465 292.549,258.605 289.133,263.021 286.940 C 263.907 286.500,264.745 285.344,264.884 284.372 C 265.022 283.400,265.709 281.792,266.409 280.799 C 267.263 279.589,267.565 278.207,267.324 276.604 C 266.983 274.328,267.064 274.225,269.031 274.450 C 271.721 274.757,271.905 281.697,269.275 283.681 C 267.673 284.890,268.047 285.817,270.138 285.817 C 273.506 285.817,275.922 280.642,273.955 277.640 C 273.057 276.269,272.850 274.906,273.156 272.366 C 273.724 267.653,273.724 267.745,273.195 265.530 C 272.621 263.126,273.842 262.926,276.481 264.991 C 277.469 265.763,279.165 266.403,280.251 266.411 C 281.338 266.420,282.229 266.670,282.232 266.966 C 282.239 267.611,285.716 269.300,287.037 269.300 C 287.551 269.300,287.971 268.643,287.971 267.841 C 287.971 267.039,288.463 266.194,289.064 265.963 C 289.953 265.622,289.819 265.231,288.346 263.865 C 286.114 261.797,286.052 260.384,288.131 258.928 C 291.490 256.575,294.742 258.143,293.052 261.301 C 291.915 263.425,293.488 264.071,295.234 262.197 C 296.790 260.527,296.431 259.189,293.783 256.793 C 292.956 256.045,292.280 254.998,292.280 254.467 C 292.280 252.970,296.186 253.302,297.653 254.923 C 299.207 256.639,302.523 257.284,305.900 256.525 C 309.613 255.690,310.306 251.906,307.314 248.799 C 304.293 245.662,304.513 243.383,308.025 241.409 C 309.993 240.303,310.986 239.179,311.314 237.686 C 311.741 235.742,313.824 234.563,313.824 236.266 C 313.824 236.661,314.147 236.984,314.542 236.984 C 314.937 236.984,315.260 236.295,315.260 235.454 C 315.260 234.106,315.560 233.972,317.774 234.331 C 320.572 234.785,321.170 233.362,319.390 230.489 C 318.650 229.296,318.682 228.908,319.569 228.290 C 320.379 227.725,320.424 227.448,319.749 227.175 C 318.464 226.653,318.641 225.010,320.038 224.474 C 321.121 224.058,321.111 223.934,319.929 223.070 C 318.064 221.706,317.967 215.949,319.802 215.579 C 320.523 215.433,321.702 215.848,322.424 216.501 C 324.795 218.646,324.881 216.227,322.514 213.965 C 319.299 210.893,317.134 211.806,317.258 216.183 C 317.305 217.834,317.005 218.312,315.922 218.312 C 314.362 218.312,313.972 210.030,315.404 207.299 C 316.422 205.358,315.741 205.190,313.881 206.923 C 312.711 208.013,312.493 208.598,313.112 208.981 C 313.643 209.308,313.781 210.135,313.470 211.115 C 313.191 211.995,312.962 213.813,312.962 215.155 C 312.962 217.057,312.667 217.594,311.623 217.594 C 310.052 217.594,308.797 215.560,308.797 213.016 C 308.797 212.026,308.474 211.016,308.079 210.772 C 307.684 210.528,307.361 210.998,307.361 211.817 C 307.361 212.635,306.987 214.028,306.531 214.911 C 306.075 215.794,305.475 217.002,305.197 217.594 C 304.920 218.187,304.163 218.776,303.514 218.904 C 301.934 219.214,301.848 213.865,303.411 212.567 C 304.628 211.557,304.861 209.695,303.770 209.695 C 303.375 209.695,303.052 210.033,303.052 210.447 C 303.052 211.501,299.456 214.722,298.279 214.722 C 296.648 214.722,297.190 212.531,299.461 209.944 C 301.558 207.556,302.392 203.950,300.848 203.950 C 299.639 203.950,300.407 200.758,301.673 200.517 C 302.408 200.377,303.274 201.334,304.131 203.236 C 305.673 206.654,308.648 207.238,308.197 204.034 C 307.987 202.540,308.192 202.368,309.813 202.678 C 310.834 202.873,311.670 202.754,311.670 202.414 C 311.670 202.074,311.372 201.795,311.007 201.795 C 308.630 201.795,307.642 191.096,309.625 186.815 C 311.290 183.221,311.358 182.027,310.128 177.985 C 308.874 173.858,309.898 170.495,313.622 166.514 C 317.578 162.284,317.429 161.112,313.452 165.184 C 309.893 168.829,308.079 168.966,308.079 165.589 C 308.079 164.240,308.422 163.021,308.842 162.882 C 309.380 162.702,309.380 162.037,308.842 160.621 C 308.422 159.517,308.045 157.585,308.003 156.327 L 307.926 154.039 307.146 156.014 C 306.328 158.084,304.488 158.735,304.488 156.954 C 304.488 155.509,303.086 154.796,302.128 155.754 C 300.969 156.913,298.743 156.734,298.743 155.482 C 298.743 154.894,299.835 153.696,301.169 152.822 C 303.373 151.377,303.561 150.984,303.229 148.506 C 302.868 145.819,304.356 144.541,305.566 146.499 C 305.810 146.894,306.798 147.217,307.762 147.217 C 309.849 147.217,310.290 144.132,308.358 143.050 C 307.453 142.544,307.324 141.870,307.768 139.962 C 308.081 138.620,308.263 136.848,308.172 136.024 C 308.081 135.201,308.508 134.111,309.120 133.603 C 310.305 132.619,310.640 130.700,309.627 130.700 C 307.975 130.700,306.577 133.702,306.162 138.137 C 305.807 141.948,305.474 142.908,304.511 142.908 C 301.569 142.908,303.547 130.695,306.946 127.874 C 307.888 127.093,308.056 126.226,307.689 124.054 C 307.242 121.408,307.312 121.259,308.903 121.484 C 310.014 121.642,310.671 122.276,310.822 123.339 C 311.079 125.153,311.253 125.229,313.000 124.294 C 315.588 122.909,314.118 118.498,311.251 119.046 C 308.377 119.595,306.683 116.152,309.469 115.423 C 310.473 115.161,310.748 114.639,310.462 113.544 C 310.180 112.464,310.399 112.029,311.227 112.029 C 311.986 112.029,312.388 111.408,312.388 110.233 C 312.388 108.268,314.288 107.753,315.835 109.300 C 316.505 109.970,316.697 109.571,316.697 107.504 C 316.697 106.043,316.373 104.847,315.978 104.847 C 315.583 104.847,315.260 104.363,315.260 103.770 C 315.260 103.178,315.583 102.693,315.978 102.693 C 316.373 102.693,316.697 101.592,316.697 100.247 C 316.697 98.159,316.487 97.855,315.269 98.174 C 313.480 98.642,312.577 96.656,313.870 95.097 C 314.455 94.392,315.408 94.137,316.464 94.402 C 317.393 94.635,318.133 94.496,318.133 94.089 C 318.133 93.687,317.810 93.357,317.415 93.357 C 317.020 93.357,316.697 92.766,316.697 92.042 C 316.697 90.532,319.699 88.669,321.202 89.246 C 323.216 90.019,323.845 88.772,322.667 86.340 C 321.841 84.635,321.064 84.022,319.728 84.022 C 318.730 84.022,316.265 83.257,314.252 82.324 C 310.336 80.507,306.842 79.677,305.386 80.217"></path>
    </g>
</svg>
