<svg version="1.1" xmlns="http://www.w3.org/2000/svg" xmlns:xlink="http://www.w3.org/1999/xlink" 
    width="400" height="403.5906642728905" viewBox="0, 0, 400,403.5906642728905">
    <g>
        <path d="M390.409 116.169 C 390.118 116.640,390.218 117.658,390.631 118.430 C 391.647 120.328,391.579 123.024,390.485 124.183 C 389.767 124.944,389.767 125.200,390.485 125.464 C 391.969 126.008,391.501 127.717,389.510 129.021 C 387.848 130.110,387.768 130.343,388.792 131.092 C 390.952 132.671,388.936 137.873,386.158 137.893 C 384.954 137.901,384.807 138.060,385.562 138.538 C 386.988 139.441,386.026 141.347,383.873 141.888 C 382.868 142.140,382.047 142.634,382.047 142.986 C 382.047 143.338,381.481 143.632,380.790 143.638 C 378.216 143.660,377.350 144.792,378.403 146.760 C 379.408 148.637,379.241 150.274,377.631 154.331 C 376.864 156.266,376.848 156.842,377.558 157.084 C 378.052 157.253,378.456 157.849,378.456 158.408 C 378.456 160.091,374.639 159.659,373.507 157.848 L 372.522 156.270 371.180 157.927 C 370.442 158.839,369.838 160.195,369.838 160.941 C 369.838 161.694,369.338 162.298,368.713 162.298 C 367.914 162.298,367.720 162.715,368.043 163.735 C 368.324 164.621,367.964 165.928,367.102 167.146 C 366.334 168.232,365.471 170.520,365.185 172.232 C 364.710 175.072,364.514 175.306,362.935 174.909 C 361.560 174.564,361.035 174.847,360.379 176.286 C 359.499 178.217,357.986 178.679,357.386 177.199 C 356.866 175.919,355.501 177.984,355.487 180.072 C 355.480 181.024,355.034 181.688,354.399 181.688 C 353.789 181.688,353.321 181.044,353.321 180.204 C 353.321 177.912,351.982 175.943,350.424 175.943 C 348.750 175.943,348.604 177.283,350.067 179.216 C 351.392 180.969,351.457 182.406,350.211 182.406 C 349.685 182.406,348.861 183.142,348.379 184.043 C 347.421 185.832,341.732 189.890,339.100 190.660 C 337.133 191.236,338.199 193.178,340.483 193.178 C 341.872 193.178,342.581 198.485,341.267 199.042 C 340.956 199.174,339.952 200.350,339.035 201.656 C 337.877 203.305,336.898 203.962,335.829 203.810 C 334.983 203.689,333.604 204.237,332.765 205.027 C 329.203 208.380,328.435 208.728,324.707 208.673 C 321.151 208.620,318.162 210.274,320.416 211.047 C 321.979 211.582,325.314 215.254,325.314 216.438 C 325.314 218.239,323.297 218.659,321.680 217.196 C 320.660 216.273,320.032 216.125,319.480 216.678 C 318.474 217.684,319.380 221.875,320.714 222.387 C 322.111 222.923,321.978 224.556,320.467 225.436 C 319.769 225.842,319.610 226.178,320.108 226.190 C 321.258 226.218,321.294 229.084,320.144 229.084 C 319.473 229.084,319.473 229.276,320.144 229.946 C 322.322 232.125,321.192 235.743,318.492 235.236 C 316.285 234.822,315.978 234.943,315.978 236.233 C 315.978 237.869,313.447 238.341,312.914 236.804 C 312.743 236.311,312.369 236.950,312.083 238.225 C 311.705 239.908,310.791 240.977,308.744 242.127 C 305.345 244.037,305.231 245.177,308.138 248.176 C 311.606 251.754,310.508 256.420,305.987 257.314 C 302.019 258.098,298.585 257.464,296.935 255.641 C 296.227 254.859,295.018 254.219,294.249 254.219 C 293.018 254.219,293.118 254.525,295.078 256.757 C 297.663 259.701,297.830 260.900,295.936 262.932 C 293.400 265.654,291.287 263.927,292.357 260.007 C 292.792 258.411,290.555 258.309,288.666 259.838 L 286.973 261.209 288.908 263.003 C 291.094 265.028,291.339 266.083,289.767 266.687 C 289.174 266.914,288.689 267.757,288.689 268.559 C 288.689 269.603,288.219 270.018,287.037 270.018 C 285.145 270.018,281.522 268.487,281.514 267.684 C 281.511 267.388,280.669 267.145,279.644 267.145 C 278.619 267.145,276.782 266.435,275.563 265.567 C 273.493 264.093,273.386 264.081,273.954 265.387 C 274.624 266.930,274.617 268.320,273.918 272.357 C 273.579 274.314,273.789 275.573,274.685 276.940 C 277.197 280.774,274.381 286.535,269.995 286.535 C 267.191 286.535,266.349 284.634,268.444 283.032 C 270.559 281.415,271.008 275.587,269.049 275.185 C 267.908 274.951,267.789 275.225,268.206 277.124 C 268.563 278.749,268.315 279.865,267.273 281.329 C 266.492 282.425,265.740 284.118,265.602 285.090 C 265.463 286.063,264.625 287.218,263.740 287.658 C 262.854 288.098,261.458 289.231,260.638 290.177 L 259.146 291.897 261.350 292.468 C 265.104 293.441,264.126 295.146,259.785 295.198 C 256.797 295.234,256.350 295.378,257.630 295.893 C 260.013 296.851,259.782 299.013,257.347 298.548 C 255.866 298.265,254.898 298.734,252.953 300.680 C 251.290 302.342,250.001 303.056,249.089 302.817 C 247.225 302.330,242.502 303.694,241.796 304.924 C 241.151 306.047,239.275 306.217,237.805 305.285 C 235.436 303.784,239.598 299.461,243.411 299.461 C 244.241 299.461,244.883 298.991,244.883 298.384 C 244.883 297.792,245.511 297.307,246.279 297.307 C 248.422 297.307,249.860 294.705,249.396 291.664 C 248.777 287.600,247.578 286.734,241.781 286.164 C 238.945 285.885,236.223 285.332,235.731 284.934 C 235.239 284.537,233.544 284.229,231.963 284.251 C 228.962 284.292,227.586 282.423,228.625 279.714 C 229.175 278.282,232.675 278.281,232.675 279.713 C 232.675 280.777,233.817 281.120,236.634 280.901 C 237.429 280.840,239.691 281.378,241.662 282.099 C 244.719 283.216,245.562 283.274,247.398 282.491 C 248.582 281.986,249.125 281.558,248.604 281.540 C 247.286 281.495,247.828 278.603,249.330 277.662 C 250.826 276.724,253.032 278.508,254.916 282.178 C 256.106 284.498,256.227 284.559,256.953 283.203 C 257.782 281.655,256.542 279.849,252.427 276.612 C 249.477 274.291,250.725 271.026,254.477 271.253 C 257.547 271.439,257.885 270.208,255.835 266.306 C 255.144 264.990,254.525 263.807,254.460 263.676 C 254.230 263.213,250.975 265.242,250.149 266.363 C 249.389 267.394,248.989 267.375,245.841 266.156 C 243.932 265.418,241.481 264.858,240.395 264.914 C 237.576 265.057,237.702 262.590,240.575 261.400 C 241.759 260.910,242.729 260.224,242.729 259.877 C 242.729 258.743,245.367 259.214,247.234 260.682 C 249.631 262.568,249.672 262.546,249.322 259.550 C 248.966 256.498,245.601 252.206,245.601 254.804 C 245.601 256.902,234.650 256.846,234.246 254.746 C 234.107 254.027,234.446 253.501,235.046 253.501 C 235.627 253.501,236.276 252.550,236.517 251.346 C 236.754 250.162,237.406 249.192,237.965 249.192 C 238.525 249.192,239.185 248.384,239.433 247.397 C 239.886 245.591,241.781 244.992,243.124 246.230 C 243.499 246.576,245.583 247.069,247.756 247.324 C 250.175 247.609,251.328 247.539,250.731 247.144 C 248.678 245.785,250.483 243.447,253.585 243.447 C 256.562 243.447,260.682 245.125,260.682 246.338 C 260.682 246.723,261.137 247.038,261.692 247.038 C 262.346 247.038,262.571 246.535,262.330 245.614 C 262.057 244.571,262.440 244.007,263.764 243.504 C 266.897 242.313,266.597 241.450,263.183 241.835 C 261.055 242.075,259.964 241.923,259.964 241.386 C 259.964 240.940,259.450 240.575,258.822 240.575 C 258.195 240.575,257.117 239.878,256.427 239.026 C 255.025 237.295,250.399 238.423,251.126 240.319 C 251.316 240.813,250.877 242.031,250.152 243.027 C 247.998 245.985,245.065 245.105,246.982 242.076 C 247.736 240.886,247.177 238.968,246.244 239.544 C 245.891 239.762,245.601 240.568,245.601 241.335 C 245.601 242.683,242.027 243.532,242.000 242.190 C 241.994 241.894,241.718 241.224,241.386 240.701 C 240.398 239.143,236.557 241.926,236.852 243.986 C 237.120 245.858,235.867 246.069,233.795 244.501 C 233.028 243.921,232.132 243.447,231.803 243.447 C 231.184 243.447,233.264 247.071,234.316 247.824 C 235.208 248.462,234.190 251.709,232.544 253.476 C 231.449 254.652,231.203 255.600,231.536 257.371 C 231.910 259.366,231.708 259.855,230.170 260.677 C 229.178 261.209,228.366 262.038,228.366 262.521 C 228.366 263.508,225.081 264.546,224.024 263.893 C 223.648 263.661,223.339 263.812,223.339 264.231 C 223.339 264.649,223.662 264.991,224.057 264.991 C 224.976 264.991,225.000 268.358,224.086 268.923 C 223.707 269.157,222.172 271.598,220.675 274.347 C 218.589 278.176,217.586 279.345,216.380 279.349 C 215.515 279.352,214.607 279.677,214.363 280.072 C 213.262 281.852,207.075 279.999,201.516 276.224 C 198.073 273.886,197.755 273.878,197.192 276.122 C 196.705 278.062,193.586 278.726,192.977 277.020 C 192.801 276.526,192.410 276.351,192.110 276.630 C 191.231 277.447,192.343 279.458,193.899 279.865 C 194.726 280.081,195.332 280.844,195.332 281.670 C 195.332 282.851,195.007 283.019,193.470 282.633 C 191.380 282.108,187.433 283.562,187.433 284.855 C 187.433 285.318,187.046 285.826,186.573 285.984 C 185.919 286.202,185.906 286.775,186.521 288.378 C 186.965 289.537,187.539 292.059,187.797 293.983 L 188.265 297.481 190.901 297.072 C 192.351 296.848,194.183 296.470,194.973 296.233 C 197.704 295.413,199.293 297.494,199.177 301.737 C 199.047 306.501,198.249 310.839,197.407 311.360 C 195.610 312.470,196.911 313.730,199.721 313.601 C 201.732 313.508,202.844 313.808,203.209 314.542 C 203.504 315.135,204.230 316.589,204.822 317.774 C 208.179 324.491,205.213 330.659,197.382 333.247 C 195.942 333.723,193.985 334.835,193.032 335.718 C 192.080 336.601,190.539 337.731,189.609 338.229 L 187.918 339.134 190.261 340.119 C 191.549 340.661,193.353 340.916,194.268 340.687 C 195.472 340.384,196.144 340.665,196.700 341.703 C 197.182 342.603,197.958 343.010,198.784 342.794 C 199.508 342.604,200.494 342.923,200.974 343.503 C 201.455 344.082,202.483 344.390,203.258 344.187 C 204.037 343.983,204.668 344.177,204.668 344.620 C 204.668 345.061,205.096 345.422,205.620 345.422 C 206.143 345.422,207.275 346.170,208.133 347.084 C 212.566 351.803,205.991 355.851,199.218 352.572 C 196.340 351.179,192.980 351.180,192.118 352.576 C 191.799 353.091,197.695 354.423,209.164 356.428 C 213.956 357.266,215.414 357.254,219.576 356.343 C 225.783 354.986,232.062 355.124,232.909 356.638 C 233.310 357.354,234.105 357.607,235.139 357.348 C 236.023 357.126,237.769 357.238,239.020 357.596 C 240.579 358.043,241.293 358.003,241.293 357.466 C 241.293 356.570,246.759 349.118,248.435 347.729 C 249.049 347.220,250.713 346.036,252.134 345.096 C 254.108 343.791,254.941 342.571,255.671 339.917 C 256.197 338.008,256.844 336.284,257.110 336.086 C 258.864 334.785,258.935 331.401,257.244 329.710 C 255.713 328.179,255.554 327.548,255.970 324.662 C 256.231 322.848,256.423 320.466,256.396 319.367 C 256.329 316.636,257.491 314.696,261.157 311.415 C 262.871 309.881,264.273 308.261,264.274 307.814 C 264.275 307.367,265.648 306.134,267.326 305.073 C 269.004 304.013,271.493 302.148,272.857 300.929 C 274.221 299.710,276.564 298.346,278.063 297.897 C 279.563 297.447,280.790 296.822,280.790 296.508 C 280.790 295.209,285.819 294.989,287.678 296.207 C 288.698 296.875,289.746 297.190,290.008 296.907 C 290.270 296.624,290.081 296.248,289.587 296.072 C 288.349 295.629,288.453 293.716,289.715 293.716 C 290.280 293.716,291.187 293.271,291.731 292.727 C 292.275 292.182,293.718 291.518,294.936 291.250 C 296.680 290.867,297.074 290.466,296.786 289.368 C 296.510 288.309,296.789 287.971,297.941 287.971 C 298.804 287.971,299.461 288.431,299.461 289.033 C 299.461 289.905,299.815 289.953,301.436 289.303 C 302.522 288.867,304.057 288.268,304.847 287.972 C 305.637 287.676,310.080 287.474,314.719 287.523 C 323.572 287.617,323.527 287.633,323.222 284.346 C 323.073 282.747,325.859 280.507,329.803 279.055 C 331.679 278.364,333.214 277.685,333.214 277.546 C 333.214 277.407,332.878 276.411,332.469 275.333 C 331.640 273.154,334.420 266.226,336.433 265.454 C 337.680 264.976,341.113 259.682,341.113 258.238 C 341.113 257.668,342.162 256.153,343.443 254.872 C 345.679 252.636,345.765 252.339,345.571 247.559 C 345.356 242.272,347.370 236.266,349.359 236.266 C 350.697 236.266,351.167 234.588,351.167 229.808 C 351.167 227.505,351.792 223.612,352.557 221.157 C 353.775 217.241,353.858 215.901,353.229 210.269 C 352.767 206.133,352.754 201.847,353.191 198.231 C 353.565 195.142,353.725 191.853,353.548 190.922 C 353.211 189.150,356.158 186.715,358.640 186.715 C 360.017 186.715,365.646 179.252,368.091 174.186 C 370.800 168.571,374.698 163.731,377.427 162.591 C 378.783 162.024,379.892 161.152,379.892 160.653 C 379.892 160.153,380.458 159.231,381.149 158.602 C 394.469 146.495,398.104 132.774,391.960 117.800 C 391.308 116.211,390.748 115.621,390.409 116.169 " 
            stroke="none" fill="#000000" fill-rule="evenodd"></path>
    </g>
</svg>
