<svg version="1.1" xmlns="http://www.w3.org/2000/svg" xmlns:xlink="http://www.w3.org/1999/xlink" 
    width="400" height="405" viewBox="0, 0, 400,405">
    <g>
        <path 
            data-layer="bioma" data-layer-name="pampa" stroke="none" fill="#000000"
            d="M185.637 341.113 C 185.387 341.903,184.719 342.549,184.153 342.549 C 183.587 342.549,183.122 342.792,183.119 343.088 C 183.117 343.384,181.420 345.443,179.349 347.662 C 177.278 349.882,175.050 352.305,174.397 353.048 C 173.745 353.791,171.669 355.853,169.783 357.630 C 166.453 360.770,166.782 363.234,170.128 360.207 C 172.889 357.708,182.308 363.624,182.383 367.904 C 182.405 369.155,182.485 369.155,184.617 367.904 C 186.789 366.630,186.851 366.635,188.108 368.179 C 189.458 369.838,194.111 372.711,195.446 372.711 C 195.880 372.711,197.487 373.842,199.017 375.224 C 200.548 376.607,202.262 377.738,202.827 377.738 C 203.392 377.738,204.765 379.079,205.877 380.718 C 208.569 384.686,210.377 385.299,212.790 383.062 C 215.145 380.878,216.017 380.877,216.564 383.057 C 217.267 385.857,215.689 388.021,213.294 387.542 C 211.706 387.225,211.204 387.436,210.914 388.543 C 210.713 389.315,210.068 389.946,209.482 389.946 C 208.492 389.946,207.341 394.535,208.132 395.326 C 209.630 396.823,216.797 388.913,217.890 384.555 C 218.183 383.391,219.696 381.226,221.254 379.744 L 224.086 377.050 221.917 377.484 C 219.568 377.954,218.646 375.962,220.826 375.125 C 221.418 374.898,221.903 374.118,221.903 373.391 C 221.903 372.665,222.762 371.650,223.812 371.134 C 224.861 370.619,226.073 369.551,226.505 368.761 C 226.936 367.971,227.469 367.163,227.689 366.966 C 227.909 366.768,228.510 365.564,229.025 364.290 C 229.747 362.507,230.524 361.869,232.404 361.516 C 233.747 361.264,235.022 360.771,235.239 360.421 C 235.934 359.297,237.702 359.742,237.699 361.041 C 237.696 362.738,235.628 365.940,232.017 369.838 C 228.393 373.752,225.711 377.322,226.683 376.940 C 228.202 376.343,237.699 365.232,239.085 362.430 C 240.855 358.853,240.330 358.142,235.979 358.230 C 233.866 358.272,232.517 357.939,232.151 357.285 C 231.367 355.883,226.215 355.834,219.938 357.168 C 209.433 359.401,184.248 353.298,193.997 350.882 C 196.091 350.363,197.216 350.538,199.782 351.779 C 203.836 353.742,204.848 353.716,207.321 351.586 L 209.336 349.851 207.595 347.996 C 206.637 346.975,205.425 346.140,204.902 346.140 C 204.378 346.140,203.950 345.847,203.950 345.489 C 203.950 345.131,203.362 344.992,202.643 345.180 C 201.924 345.368,200.943 345.048,200.462 344.469 C 199.981 343.890,198.981 343.574,198.240 343.768 C 197.377 343.994,196.614 343.602,196.121 342.682 C 195.606 341.719,194.875 341.367,193.914 341.618 C 193.124 341.825,191.174 341.473,189.581 340.836 C 185.995 339.401,186.185 339.387,185.637 341.113"></path>
    </g>
</svg>
