<svg version="1.1" xmlns="http://www.w3.org/2000/svg" xmlns:xlink="http://www.w3.org/1999/xlink" 
    width="400" height="403.5906642728905" viewBox="0, 0, 400,403.5906642728905">
    <g>
        <path d="M161.339 215.720 C 159.867 217.966,158.487 218.092,156.553 216.158 C 155.598 215.203,155.117 215.042,155.117 215.678 C 155.117 216.203,154.309 217.066,153.321 217.594 C 150.272 219.226,151.084 220.467,155.200 220.467 C 158.855 220.467,158.872 220.478,158.361 222.442 C 157.039 227.524,159.072 231.957,162.725 231.957 C 163.965 231.957,164.453 232.498,164.834 234.291 C 165.107 235.575,165.813 237.172,166.402 237.841 C 167.356 238.924,167.329 239.438,166.152 242.509 C 165.425 244.407,164.909 246.314,165.006 246.746 C 165.103 247.178,164.225 249.326,163.055 251.518 C 161.030 255.314,160.995 255.523,162.331 255.872 C 164.112 256.338,164.157 258.297,162.400 258.855 C 161.101 259.267,161.102 259.389,162.428 263.391 C 163.524 266.700,163.697 268.593,163.311 273.070 C 162.971 277.009,163.068 278.636,163.642 278.636 C 164.088 278.636,164.454 277.747,164.457 276.661 C 164.459 275.575,164.944 273.760,165.534 272.629 C 166.124 271.498,166.607 270.124,166.607 269.577 C 166.607 269.029,166.930 268.582,167.325 268.582 C 168.315 268.582,168.233 266.610,167.230 266.276 C 165.976 265.858,167.146 263.144,168.957 262.270 C 170.239 261.651,170.307 261.488,169.300 261.449 C 166.522 261.342,168.605 255.655,171.422 255.655 C 173.071 255.655,175.224 257.772,175.224 259.394 C 175.224 260.006,175.709 260.909,176.302 261.400 C 177.199 262.145,177.379 262.050,177.379 260.829 C 177.379 256.534,179.795 255.824,181.393 259.649 L 182.462 262.207 185.306 258.765 C 186.871 256.872,188.151 255.029,188.151 254.670 C 188.151 254.312,188.640 253.660,189.238 253.221 C 189.961 252.691,190.351 251.099,190.403 248.474 C 190.445 246.302,190.949 243.606,191.522 242.485 C 192.120 241.314,192.332 239.937,192.020 239.253 C 191.119 237.278,191.062 233.139,191.912 231.410 C 192.573 230.067,192.475 229.613,191.348 228.789 C 190.142 227.907,190.096 227.585,190.948 225.993 C 192.116 223.811,191.514 222.621,189.243 222.621 C 187.942 222.621,187.436 222.119,187.074 220.467 C 186.707 218.797,186.210 218.312,184.862 218.312 C 183.906 218.312,183.119 217.908,183.113 217.415 C 183.078 214.603,181.826 214.743,178.606 217.918 C 174.819 221.652,174.571 221.727,172.820 219.681 C 171.618 218.278,171.472 218.259,170.630 219.410 C 169.121 221.474,164.483 219.026,163.168 215.472 L 162.567 213.845 161.339 215.720 " 
            stroke="none" fill="#000000" fill-rule="evenodd"></path>
    </g>
</svg>
